<?xml version="1.0" encoding="utf-8"?>
<!-- Generator: Adobe Illustrator 16.0.0, SVG Export Plug-In . SVG Version: 6.00 Build 0)  -->
<!DOCTYPE svg PUBLIC "-//W3C//DTD SVG 1.1//EN" "http://www.w3.org/Graphics/SVG/1.1/DTD/svg11.dtd">
							<svg version="1.1" id="Layer_1" xmlns="http://www.w3.org/2000/svg" xmlns:xlink="http://www.w3.org/1999/xlink" x="0px" y="0px" viewBox="0 0 100 120" style="enable-background:new 0 0 100 120;" xml:space="preserve">
								<style type="text/css">
									.st0 {
										fill-rule: evenodd;
										clip-rule: evenodd;
										fill: #FFFFFF;
										stroke: #010101;
										stroke-width: 0.25;
										stroke-linecap: square;
										stroke-miterlimit: 10;
									}
									
									.st1 {
										fill: none;
										stroke: #010101;
										stroke-width: 0.25;
										stroke-linecap: square;
										stroke-miterlimit: 10;
									}
									
									.st2 {
										fill-rule: evenodd;
										clip-rule: evenodd;
										fill: #FFFFFF;
									}
									
									.st3 {
										fill: #3A51A3;
									}
									
									.st4 {
										fill: #D22026;
									}
								</style>
								<polygon fill-rule="evenodd" clip-rule="evenodd" fill="#FFFFFF" stroke="#312F2A" stroke-width="0.25" id="area101" class="st0" points="31.4,7.8 31.8,7.9 32.3,8 32.7,8.1 33.2,8.3 33.6,8.4 34.1,8.5 34.5,8.5 35,8.7 35.7,8.9 	36.3,9 36.6,9 37.2,9.2 37.5,9.3 37.9,9.3 38.4,9.4 38.8,9.5 39.2,9.5 39.7,9.7 40.1,9.8 40.5,9.8 41,9.9 41.4,9.9 41.8,10.1 	42.3,10.1 42.7,10.2 43.4,10.2 43.9,10.3 44.7,10.3 45.1,10.4 46,10.4 46.4,10.6 48,10.6 48.4,10.7 53.5,10.7 53.9,10.6 55.5,10.6 	55.8,10.4 57,10.4 57.4,10.3 58.3,10.3 58.7,10.2 59,10.2 59.4,10.1 59.8,10.1 60.2,9.9 60.6,9.9 61,9.8 61.2,9.8 61.6,9.7 62,9.7 	62.8,9.4 63.1,9.4 63.9,9.2 64.3,9.2 65.1,8.9 65.4,8.8 65.8,8.8 66.1,8.7 66.8,8.4 67.6,8.1 68,8 68.4,8 68.9,7.8 77.6,25.5 	51.4,51.7 23.2,21.3 31.4,7.8 "></polygon>
								<polyline class="st1" points="30.2,8.7 30.7,8.8 31.1,8.9 31.6,9 32,9.3 32.5,9.4 32.9,9.5 33.3,9.7 "></polyline>
								<polyline class="st1" points="36.5,10.4 36.6,10.4 37,10.6 37.5,10.7 37.9,10.7 38.4,10.8 38.8,11 39.3,11.1 39.7,11.1 "></polyline>
								<polyline class="st1" points="42.9,11.6 43.3,11.7 44.2,11.7 44.6,11.8 45.5,11.8 45.9,12 46.1,12 "></polyline>
								<line class="st1" x1="49.3" y1="12.1" x2="52.5" y2="12.1"></line>
								<polyline class="st1" points="55.7,11.8 55.8,11.8 56.4,11.7 57.1,11.7 57.5,11.6 58,11.6 58.4,11.5 58.8,11.5 58.9,11.5 "></polyline>
								<polyline class="st1" points="62.1,10.8 62.5,10.7 63.3,10.4 64,10.2 64.4,10.2 64.8,10.1 65.3,9.9 "></polyline>
								<polyline class="st1" points="68.4,8.8 68.8,8.7 69.5,8.4 69.8,8.3 "></polyline>
								<rect x="48.5" y="16.8" class="st0" width="3.6" height="2.9"></rect>
								<polygon fill-rule="evenodd" clip-rule="evenodd" fill="#FFFFFF" stroke="#312F2A" stroke-width="0.25" id="area103" class="st0" points="86.8,112.4 86.8,109.4 86.9,107.3 87.2,105.2 87.3,102.5 87.7,99.7 88.1,96.5 88.6,92.9 	89.1,89.8 89.6,86.5 90.1,83 90.8,79.2 4.5,54.4 5.8,61.8 7.1,68.7 76.7,89.8 76.7,113.5 79,113.3 80.9,113.1 82.7,113 84.1,112.8 	85.3,112.6 86.2,112.6 86.7,112.4 86.8,112.4 "></polygon>
								<polygon fill-rule="evenodd" clip-rule="evenodd" fill="#FFFFFF" stroke="#312F2A" stroke-width="0.25" id="area102" class="st0" points="90.8,79.2 91.7,73.6 92.8,67.6 94,61.1 95.3,54.2 93.1,53.1 91,51.5 89.1,49.5 87.2,47.1 	85.5,44.4 84,41.5 82.6,38.3 81.3,35.1 80.2,31.8 79.3,28.4 78.6,25.1 78.1,21.9 77.9,18.9 77.9,16.1 78.1,13.6 78.6,11.5 68.6,7.2 	50,37.8 31.4,7.5 20.3,12.1 20.8,14.3 21,16.7 21,19.5 20.8,22.4 20.4,25.5 19.7,28.7 17.9,35.2 16.8,38.4 15.4,41.5 14,44.3 	12.3,46.8 10.5,49.2 8.6,51.2 6.6,52.7 4.4,53.8 4.5,54.4 90.8,79.2 "></polygon>
								<rect fill-rule="evenodd" clip-rule="evenodd" fill="#FFFFFF" stroke="#312F2A" stroke-width="0.25" x="46.1" y="12.1" class="st0" width="8.1" height="4.6"></rect>
								<polygon fill-rule="evenodd" clip-rule="evenodd" fill="#FFFFFF" stroke="#312F2A" stroke-width="0.25" class="st2" points="83.2,109.8 78.1,109.8 78.1,105.7 83.2,105.7 83.2,109.8 "></polygon>
								<polyline class="st1" points="83.2,109.8 78.1,109.8 78.1,105.7 83.2,105.7 83.2,109.8 "></polyline>
								<polygon fill-rule="evenodd" clip-rule="evenodd" fill="#FFFFFF" stroke="#312F2A" stroke-width="0.25" class="st3" points="81.1,106.2 81.2,106.2 81.6,106.3 81.8,106.4 82.3,107.2 81.1,107.2 80.9,107 80.8,106.7 81.3,107 	81.8,107 81.7,107 81.4,106.7 81.2,106.6 80.4,106.7 80,107.3 80,107.8 80.2,108.4 80.4,108.6 80.2,108.6 79.9,108.4 79.8,108.2 	79.7,108 79.9,106.8 80.2,106.4 80.5,106.3 80.9,106.2 81.1,106.2 "></polygon>
								<polygon fill-rule="evenodd" clip-rule="evenodd" fill="#FFFFFF" stroke="#312F2A" stroke-width="0.25" class="st4" points="80.4,106.2 80,106.2 79.7,106.3 79.1,106.8 79.1,107.1 79,107.7 79,107.8 79.1,108.2 79.4,108.7 	79.9,109.1 80.4,109.1 80.9,109 81.3,108.4 81.8,108.4 81.7,108.6 81.4,108.9 80.9,109.1 81.1,109.1 81.4,109 82,108.7 82.3,108.1 	81.2,108.1 81.2,108.2 80.7,108.7 80.2,108.9 80,108.9 79.8,108.7 79.5,108.4 79.3,107.7 79.3,107.5 79.4,107.1 79.8,106.6 	80.4,106.2 "></polygon>
								<polygon fill-rule="evenodd" clip-rule="evenodd" fill="#FFFFFF" stroke="#312F2A" stroke-width="0.25" id="area105" class="st0" points="9.6,83.6 10.4,88.3 11,92.7 11.5,96.1 11.9,99.3 12.3,102.2 12.6,104.8 12.7,107.1 	12.8,109 12.8,112.1 19.7,113 26.7,113.6 33.4,114 40.1,114.4 46.5,114.5 52.6,114.5 58.4,114.4 63.8,114.2 63.8,100.1 9.6,83.6 "></polygon>
								<polygon fill-rule="evenodd" clip-rule="evenodd" fill="#FFFFFF" stroke="#312F2A" stroke-width="0.25" id="area104" class="st0" points="7.1,68.7 7.8,72.7 8.5,76.6 9.1,80.1 9.6,83.6 63.8,100.1 63.8,114.2 67.4,114.1 	70.8,113.8 73.9,113.7 76.7,113.5 76.7,89.8 7.1,68.7 "></polygon>
							</svg>
