<?xml version="1.0" encoding="utf-8"?>
<!-- Generator: Adobe Illustrator 16.0.0, SVG Export Plug-In . SVG Version: 6.00 Build 0)  -->
<!DOCTYPE svg PUBLIC "-//W3C//DTD SVG 1.1//EN" "http://www.w3.org/Graphics/SVG/1.1/DTD/svg11.dtd">
							<svg version="1.1" id="Layer_1" xmlns="http://www.w3.org/2000/svg" xmlns:xlink="http://www.w3.org/1999/xlink" x="0px" y="0px" viewBox="0 0 100 120" enable-background="new 0 0 100 120" xml:space="preserve">
								<polygon id="area101" fill-rule="evenodd" clip-rule="evenodd" fill="#FFFFFF" stroke="#312F2A" stroke-width="0.25" stroke-linecap="square" stroke-miterlimit="10" points="	64.6,10.7 49.5,19.6 33.5,10.2 26.4,14.1 26.4,16.6 26.7,17.3 26.7,19.8 26.9,20.5 26.9,21.7 27.1,22.1 27.1,23.5 27.4,23.9 	27.4,24.4 27.6,25.1 27.6,26.2 28,27.1 28,27.6 28.3,28.3 28.3,28.8 28.7,29.7 28.7,30.1 29.2,31 29.2,31.5 29.6,32.4 30.1,33.3 	30.3,33.8 30.3,34.2 30.6,34.7 30.8,34.9 31.2,35.8 31.5,36.3 31.7,36.5 32.2,37.4 32.6,37.9 32.8,38.4 33.1,38.6 33.3,39.1 	33.8,39.3 34,39.5 34.2,40 34.4,40.2 34.9,40.4 35.1,40.9 35.4,41.1 35.8,41.3 36,41.6 36.3,42 36.7,42.3 37,42.5 37.4,42.7 	37.6,42.9 38.1,43.2 38.3,43.4 39.2,43.9 39.5,44.1 39.9,44.3 40.2,44.5 40.6,44.5 41.5,45 41.8,45.2 42.2,45.2 43.1,45.7 	43.6,45.7 43.8,45.9 44.3,46.1 44.7,46.1 45.2,46.4 46.1,46.4 46.6,46.6 47,46.6 47.5,46.8 48.9,46.8 49.5,47.1 51.4,47.1 	51.8,46.8 53,46.8 53.4,46.6 54.1,46.6 54.6,46.4 54.8,46.4 55.3,46.1 55.7,46.1 55.9,45.9 56.4,45.9 56.6,45.7 57.1,45.7 	57.3,45.5 57.8,45.2 58,45.2 58.5,45 58.7,44.8 59.1,44.8 59.6,44.3 60.1,44.1 60.3,43.9 60.8,43.6 61.2,43.2 61.4,42.9 61.9,42.7 	62.4,42.3 62.8,42 63,41.8 63.3,41.3 63.5,41.1 64,40.9 64.2,40.7 64.4,40.2 64.9,39.7 65.1,39.3 65.6,38.8 65.8,38.6 66.2,37.7 	66.5,37.4 66.7,37 66.9,36.8 67.4,35.8 67.6,35.6 68.1,34.7 68.5,33.8 68.8,33.3 69,33.1 69.2,32.6 69.2,32.2 69.7,31.3 69.9,30.8 	70.1,30.1 70.4,29.7 70.4,29.2 70.8,28.3 70.8,27.8 71,27.1 71.5,26.2 71.5,25.5 71.7,25.1 71.7,24.6 72,23.9 72.2,23.5 72.2,22.8 	72.4,22.3 72.4,21.7 72.6,21 72.6,20.5 73.1,19.1 73.1,18 73.3,17.3 73.3,16.6 73.6,16.2 73.6,15.7 64.6,10.7 "></polygon>
								<polygon fill-rule="evenodd" clip-rule="evenodd" fill="#FFFFFF" stroke="#010101" stroke-width="0.25" stroke-linecap="square" stroke-miterlimit="10" points="	53.9,22.1 57.8,29 62.1,26.5 58.2,19.6 53.9,22.1 "></polygon>
								<polygon fill-rule="evenodd" clip-rule="evenodd" fill="#FFFFFF" stroke="#010101" stroke-width="0.25" stroke-linecap="square" stroke-miterlimit="10" points="	52.3,23 55.3,27.8 62.4,23.7 59.6,18.9 52.3,23 "></polygon>
								<line fill="none" stroke="#312F2A" stroke-width="0.25" stroke-linecap="square" stroke-miterlimit="10" x1="33.8" y1="11.6" x2="38.8" y2="14.3"></line>
								<line fill="none" stroke="#312F2A" stroke-width="0.25" stroke-linecap="square" stroke-miterlimit="10" x1="41.1" y1="15.7" x2="46.1" y2="18.7"></line>
								<polyline fill="none" stroke="#312F2A" stroke-width="0.25" stroke-linecap="square" stroke-miterlimit="10" points="48.4,20.1 	49.8,20.7 53.4,18.7 "></polyline>
								<line fill="none" stroke="#312F2A" stroke-width="0.25" stroke-linecap="square" stroke-miterlimit="10" x1="55.7" y1="17.3" x2="60.8" y2="14.6"></line>
								<line fill="none" stroke="#312F2A" stroke-width="0.25" stroke-linecap="square" stroke-miterlimit="10" x1="63" y1="13.2" x2="65.8" y2="11.6"></line>
								<polyline fill="none" stroke="#312F2A" stroke-width="0.25" stroke-linecap="square" stroke-miterlimit="10" points="34.4,15.5 	45.7,22.3 45.9,22.6 46.3,22.6 46.3,22.8 46.6,22.8 46.8,23 47,23 47.3,23.3 47.5,23.3 47.7,23.5 48.2,23.5 48.2,23.7 48.9,23.7 	49.1,23.9 50.2,23.9 50.2,23.7 50.9,23.7 50.9,23.5 51.4,23.5 51.4,23.3 52.3,23.3 52.3,23 52.7,23 52.7,22.8 53.2,22.8 53.2,22.6 	53.7,22.6 53.7,22.3 54.1,22.3 54.1,22.1 54.3,22.1 54.6,21.9 54.8,21.9 54.8,21.7 55,21.7 64.6,15.2 "></polyline>
								<polyline fill="none" stroke="#010101" stroke-width="0.25" stroke-linecap="square" stroke-miterlimit="10" points="18.4,100.9 	20.3,100.9 21,101.1 23.5,101.1 24.2,101.3 "></polyline>
								<polyline fill="none" stroke="#010101" stroke-width="0.25" stroke-linecap="square" stroke-miterlimit="10" points="26.9,101.3 	28.5,101.3 29.2,101.6 32.6,101.6 "></polyline>
								<line fill="none" stroke="#010101" stroke-width="0.25" stroke-linecap="square" stroke-miterlimit="10" x1="35.4" y1="101.8" x2="41.1" y2="101.8"></line>
								<line fill="none" stroke="#010101" stroke-width="0.25" stroke-linecap="square" stroke-miterlimit="10" x1="43.8" y1="101.8" x2="49.5" y2="101.8"></line>
								<polyline fill="none" stroke="#010101" stroke-width="0.25" stroke-linecap="square" stroke-miterlimit="10" points="52.3,101.8 	57.3,101.8 58,101.6 "></polyline>
								<polyline fill="none" stroke="#010101" stroke-width="0.25" stroke-linecap="square" stroke-miterlimit="10" points="60.8,101.6 	61.9,101.6 62.6,101.3 65.6,101.3 66,101.1 66.5,101.1 "></polyline>
								<polyline fill="none" stroke="#010101" stroke-width="0.25" stroke-linecap="square" stroke-miterlimit="10" points="69.2,100.9 	70.1,100.9 70.8,100.6 72.4,100.6 72.9,100.4 74,100.4 74.5,100.2 74.9,100.2 "></polyline>
								<polyline fill="none" stroke="#010101" stroke-width="0.25" stroke-linecap="square" stroke-miterlimit="10" points="77.7,99.7 	78.6,99.7 79,99.5 80.2,99.5 80.7,99.3 80.9,99.3 "></polyline>
								<polyline fill="none" stroke="#010101" stroke-width="0.25" stroke-linecap="square" stroke-miterlimit="10" points="18.2,92.6 	19.1,92.6 20,92.9 21.6,92.9 22.6,93.1 23.9,93.1 "></polyline>
								<polyline fill="none" stroke="#010101" stroke-width="0.25" stroke-linecap="square" stroke-miterlimit="10" points="26.7,93.3 	28.3,93.3 29.2,93.5 31.5,93.5 32.4,93.8 "></polyline>
								<polyline fill="none" stroke="#010101" stroke-width="0.25" stroke-linecap="square" stroke-miterlimit="10" points="35.1,93.8 	37.2,93.8 37.9,94 40.9,94 "></polyline>
								<line fill="none" stroke="#010101" stroke-width="0.25" stroke-linecap="square" stroke-miterlimit="10" x1="43.6" y1="94" x2="49.3" y2="94"></line>
								<polyline fill="none" stroke="#010101" stroke-width="0.25" stroke-linecap="square" stroke-miterlimit="10" points="52.1,94 	56.9,94 57.3,93.8 57.8,93.8 "></polyline>
								<polyline fill="none" stroke="#010101" stroke-width="0.25" stroke-linecap="square" stroke-miterlimit="10" points="60.5,93.8 	60.8,93.8 61.2,93.5 63.7,93.5 64.4,93.3 66.2,93.3 "></polyline>
								<polyline fill="none" stroke="#010101" stroke-width="0.25" stroke-linecap="square" stroke-miterlimit="10" points="69,92.9 	70.1,92.9 70.8,92.6 72,92.6 72.4,92.4 73.6,92.4 74,92.2 74.5,92.2 74.7,92.2 "></polyline>
								<polyline fill="none" stroke="#010101" stroke-width="0.25" stroke-linecap="square" stroke-miterlimit="10" points="77.4,91.5 	77.7,91.5 78.1,91.5 78.6,91.2 79,91.2 79.7,91 80.2,91 80.7,90.8 80.9,90.8 "></polyline>
								<polygon fill-rule="evenodd" clip-rule="evenodd" fill="#FFFFFF" stroke="#010101" stroke-width="0.25" stroke-linecap="square" stroke-miterlimit="10" points="	18,91.2 18.9,91.2 19.6,91.5 23,91.5 23.7,91.7 26.9,91.7 27.8,91.9 31.7,91.9 32.6,92.2 40.9,92.2 41.5,92.4 47.9,92.4 48.6,92.2 	55.9,92.2 56.6,91.9 59.8,91.9 60.3,91.7 62.8,91.7 63.5,91.5 65.3,91.5 66,91.2 67.8,91.2 68.3,91 70.1,91 70.6,90.8 71.7,90.8 	72.4,90.6 73.6,90.6 74,90.3 74.5,90.3 75.2,90.1 76.3,90.1 76.8,89.9 77.2,89.9 77.7,89.6 78.8,89.6 79.3,89.4 80,89.4 80.4,89.2 	80.7,89.2 81.1,100.4 80.7,100.4 80.2,100.6 79.5,100.6 79,100.9 77.9,100.9 77.4,101.1 76.3,101.1 75.8,101.3 75.4,101.3 	74.7,101.6 73.6,101.6 73.1,101.8 71.5,101.8 70.8,102 69.7,102 69.2,102.2 67.4,102.2 66.7,102.5 64.4,102.5 63.7,102.7 	61.2,102.7 60.5,102.9 56.6,102.9 55.9,103.2 49.5,103.2 48.9,103.4 38.8,103.4 37.9,103.2 30.3,103.2 29.4,102.9 24.6,102.9 	23.9,102.7 20.5,102.7 19.8,102.5 18.4,102.5 18,91.2 "></polygon>
								<polygon id="area102" fill-rule="evenodd" clip-rule="evenodd" fill="#FFFFFF" stroke="#312F2A" stroke-width="0.25" stroke-linecap="square" stroke-miterlimit="10" points="	34.4,10 48.9,40.2 63.3,10 85.9,17.3 84.1,24.4 82.7,30.8 82.3,36.8 82.3,39.3 82.7,41.6 84.1,45.5 86.4,48.7 89.6,51 93.5,52.8 	92.5,57.6 91.4,61.3 90.5,64.5 89.6,67 88,71.8 87.3,74.3 86.8,77.3 86.4,80.7 85.9,84.6 85.2,92.6 85.2,96.5 85,99.7 85,103.6 	80.9,105.4 76.3,106.8 71.5,107.5 66.5,108.2 56.2,108.6 51.4,108.4 47,108.4 42.5,108.2 38.3,108 30.8,107.5 23.2,106.1 19.3,105 	14.8,103.6 14.8,101.1 14.5,97.4 14.3,92.4 13.6,86.4 12.3,79.6 11.6,75.9 10.7,71.8 8.6,63.1 7.7,58.1 6.5,52.8 10.4,51.2 	13.2,49.4 15.2,46.6 15.9,44.8 16.6,42.7 16.8,41.6 16.8,40 16.4,36.3 14.5,27.8 13.6,23.9 12.5,20.5 12.3,19.1 11.8,18.2 	11.6,17.5 11.6,17.3 11.8,17.3 12.3,17.1 14.1,16.6 17.1,15.7 20.5,14.6 28,12.3 31.5,11.1 34.4,10 "></polygon>
								<line fill="none" stroke="#312F2A" stroke-width="0.25" stroke-linecap="square" stroke-miterlimit="10" x1="33.3" y1="10.2" x2="35.8" y2="15.2"></line>
								<line fill="none" stroke="#312F2A" stroke-width="0.25" stroke-linecap="square" stroke-miterlimit="10" x1="37" y1="17.8" x2="39.5" y2="23"></line>
								<line fill="none" stroke="#312F2A" stroke-width="0.25" stroke-linecap="square" stroke-miterlimit="10" x1="40.6" y1="25.3" x2="43.1" y2="30.6"></line>
								<line fill="none" stroke="#312F2A" stroke-width="0.25" stroke-linecap="square" stroke-miterlimit="10" x1="44.3" y1="33.1" x2="46.8" y2="38.1"></line>
								<polyline fill="none" stroke="#312F2A" stroke-width="0.25" stroke-linecap="square" stroke-miterlimit="10" points="47.9,40.7 	48.9,42.5 50.5,39.3 "></polyline>
								<line fill="none" stroke="#312F2A" stroke-width="0.25" stroke-linecap="square" stroke-miterlimit="10" x1="51.6" y1="36.8" x2="54.1" y2="31.5"></line>
								<line fill="none" stroke="#312F2A" stroke-width="0.25" stroke-linecap="square" stroke-miterlimit="10" x1="55.3" y1="29" x2="57.8" y2="23.9"></line>
								<line fill="none" stroke="#312F2A" stroke-width="0.25" stroke-linecap="square" stroke-miterlimit="10" x1="58.9" y1="21.4" x2="61.4" y2="16.2"></line>
								<line fill="none" stroke="#312F2A" stroke-width="0.25" stroke-linecap="square" stroke-miterlimit="10" x1="62.6" y1="13.6" x2="64.2" y2="10.4"></line>
								<polygon id="area103" fill-rule="evenodd" clip-rule="evenodd" fill="#FFFFFF" stroke="#312F2A" stroke-width="0.25" stroke-linecap="square" stroke-miterlimit="10" points="	14.3,103.8 15,104.1 15.9,104.3 17.3,104.8 18.2,105 19.6,105.4 20.5,105.7 21.9,106.1 22.8,106.4 24.2,106.8 25.1,107 25.8,107 	26.4,107.3 27.4,107.5 28,107.7 28.7,107.7 29.6,108 30.3,108.2 31,108.2 31.9,108.4 32.6,108.4 33.3,108.6 34.2,108.6 34.9,108.9 	35.6,108.9 36.5,109.1 37.2,109.1 37.9,109.3 38.8,109.3 39.5,109.6 41.8,109.6 42.5,109.8 44.7,109.8 45.7,110 55,110 55.9,109.8 	58.9,109.8 59.6,109.6 61.2,109.6 61.9,109.3 62.8,109.3 63.5,109.1 65.1,109.1 65.8,108.9 66.5,108.9 67.4,108.6 68.1,108.6 	68.8,108.4 69.7,108.2 70.4,108.2 71,108 72,108 73.3,107.5 74.2,107.3 74.9,107.3 75.6,107 76.5,106.8 77.9,106.4 78.8,106.1 	79.5,106.1 80.2,105.9 81.1,105.7 82.5,105.2 83.4,105 84.8,104.5 85.2,104.3 85.2,102 85.5,101.3 85.5,97 85.7,96.5 85.7,93.1 	85.9,92.6 85.9,89.6 86.1,89.4 86.1,86.4 86.4,86 86.4,83.7 86.6,83.2 86.6,81.2 86.8,80.9 86.8,79.3 87.1,79.1 87.1,77.5 	87.3,77.3 87.3,75.9 87.5,75.7 87.5,74.5 87.7,74.3 87.7,73.4 88,73.2 88,72.5 88.2,72.5 88.2,71.8 88.4,71.6 88.4,71.3 49.8,96.1 	10.4,71.3 10.4,71.8 10.7,72.2 10.7,73.4 10.9,73.9 10.9,74.3 11.1,74.8 11.1,75.7 11.3,76.1 11.3,77.1 11.6,77.7 11.6,79.1 	11.8,79.3 11.8,80.3 12,80.7 12,81.6 12.3,82.1 12.3,83.5 12.5,83.7 12.5,85.1 12.7,85.5 12.7,86.7 12.9,86.9 12.9,88 13.2,88.5 	13.2,89.9 13.4,90.3 13.4,91.9 13.6,92.4 13.6,94.2 13.9,94.7 13.9,96.5 14.1,96.7 14.1,99.7 14.3,99.9 14.3,103.8 "></polygon>
								<polygon id="area1" fill-rule="evenodd" clip-rule="evenodd" fill="#FFFFFF" stroke="#312F2A" stroke-width="0.25" stroke-linecap="square" stroke-miterlimit="10" points="	8.1,60.6 48.9,85.1 91.6,60.6 87.5,74.5 48.9,97.9 10.9,74.5 8.1,60.6 "></polygon>
								<polygon id="area2" fill-rule="evenodd" clip-rule="evenodd" fill="#FFFFFF" stroke="#312F2A" stroke-width="0.25" stroke-linecap="square" stroke-miterlimit="10" points="	8.6,63.3 48.9,87.6 90.7,63.5 88.4,71.8 48.9,95.1 10.4,71.8 8.6,63.3 "></polygon>
								<polygon id="area3" fill-rule="evenodd" clip-rule="evenodd" fill="#FFFFFF" stroke="#312F2A" stroke-width="0.25" stroke-linecap="square" stroke-miterlimit="10" points="	9.7,68.8 48.9,92.9 89.1,69 90,66.1 48.9,90.3 9.1,66.1 9.7,68.8 "></polygon>
								<polyline fill="none" stroke="#312F2A" stroke-width="0.25" stroke-linecap="square" stroke-miterlimit="10" points="12.5,17.1 	12.5,17.3 12.7,17.5 12.7,18.2 12.9,18.2 12.9,18.9 13.2,18.9 13.2,19.6 13.4,19.6 13.4,20.3 13.6,20.3 13.6,21.2 13.9,21.2 	13.9,21.7 "></polyline>
								<polyline fill="none" stroke="#312F2A" stroke-width="0.25" stroke-linecap="square" stroke-miterlimit="10" points="14.5,24.2 	14.5,24.4 14.8,24.6 14.8,25.3 15,25.5 15,26.2 15.2,26.5 15.2,26.9 15.5,27.1 15.5,27.8 15.7,28.1 15.7,28.8 15.9,29 15.9,29.7 	16.1,29.9 "></polyline>
								<polyline fill="none" stroke="#312F2A" stroke-width="0.25" stroke-linecap="square" stroke-miterlimit="10" points="16.8,32.6 	16.8,33.6 17.1,33.8 17.1,34.5 17.3,34.7 17.3,35.6 17.5,35.8 17.5,37 17.7,37 17.7,38.1 "></polyline>
								<polyline fill="none" stroke="#312F2A" stroke-width="0.25" stroke-linecap="square" stroke-miterlimit="10" points="17.7,40.7 	17.7,42 17.5,42.3 17.5,43.2 17.3,43.4 17.3,44.1 17.1,44.3 17.1,44.8 16.8,45 16.8,45.5 16.6,45.5 16.6,46.1 "></polyline>
								<polyline fill="none" stroke="#312F2A" stroke-width="0.25" stroke-linecap="square" stroke-miterlimit="10" points="15.5,48 	15.5,48.2 15.2,48.4 15.2,48.7 15,48.7 15,48.9 14.8,49.1 14.8,49.4 14.5,49.4 14.5,49.6 14.3,49.6 14.3,49.8 14.1,49.8 14.1,50 	13.9,50 13.6,50.3 13.6,50.5 13.4,50.5 13.4,50.7 13.2,51 12.9,51 12.9,51.2 12.7,51.2 12.3,51.6 "></polyline>
								<polyline fill="none" stroke="#312F2A" stroke-width="0.25" stroke-linecap="square" stroke-miterlimit="10" points="10,52.8 	9.7,52.8 9.5,53 9.3,53 9.1,53.2 8.6,53.2 8.4,53.5 7.9,53.5 7.7,53.7 7.2,53.7 7,53.9 6.8,53.9 "></polyline>
								<polyline fill="none" stroke="#312F2A" stroke-width="0.25" stroke-linecap="square" stroke-miterlimit="10" points="85,17.1 	85,17.3 84.8,17.5 84.8,18.2 84.5,18.2 84.5,18.7 84.3,18.9 84.3,19.6 84.1,19.8 84.1,20.5 83.9,20.7 83.9,21.4 83.6,21.7 	83.6,22.3 83.4,22.6 "></polyline>
								<polyline fill="none" stroke="#312F2A" stroke-width="0.25" stroke-linecap="square" stroke-miterlimit="10" points="82.7,25.1 	82.7,26 82.5,26.2 82.5,27.1 82.3,27.1 82.3,28.5 82,28.8 82,29.7 81.8,29.9 81.8,30.6 "></polyline>
								<polyline fill="none" stroke="#312F2A" stroke-width="0.25" stroke-linecap="square" stroke-miterlimit="10" points="81.3,33.1 	81.3,34.2 81.1,34.5 81.1,36.1 80.9,36.3 80.9,38.8 "></polyline>
								<polyline fill="none" stroke="#312F2A" stroke-width="0.25" stroke-linecap="square" stroke-miterlimit="10" points="81.3,41.3 	81.3,41.6 81.6,41.6 81.6,42.3 81.8,42.5 81.8,42.9 82,43.2 82,43.6 82.3,43.9 82.3,44.3 82.5,44.3 82.5,44.8 82.7,45 82.7,45.2 	82.9,45.5 82.9,45.7 83.2,45.9 83.2,46.1 83.4,46.4 83.4,46.6 "></polyline>
								<polyline fill="none" stroke="#312F2A" stroke-width="0.25" stroke-linecap="square" stroke-miterlimit="10" points="85,48.4 	85,48.7 85.2,48.7 85.2,48.9 85.5,48.9 85.5,49.1 85.7,49.1 85.7,49.4 85.9,49.4 86.1,49.6 86.1,49.8 86.4,49.8 86.8,50.3 	87.3,50.7 87.5,50.7 87.5,51 87.7,51 88.2,51.4 88.4,51.4 88.7,51.6 "></polyline>
								<polyline fill="none" stroke="#312F2A" stroke-width="0.25" stroke-linecap="square" stroke-miterlimit="10" points="90.7,53 	91.2,53 91.4,53.2 91.6,53.2 91.9,53.5 92.1,53.5 92.3,53.7 92.5,53.7 92.8,53.9 93,53.9 "></polyline>
								<polygon fill-rule="evenodd" clip-rule="evenodd" fill="#FFFFFF" points="76.3,96.3 76.8,101.3 82,100.9 81.6,95.8 76.3,96.3 "></polygon>
								<polygon fill="#010101" points="76.1,96.1 76.5,101.6 82.3,101.1 81.8,95.6 76.1,96.1 76.5,96.5 81.3,96.1 81.8,100.6 77,101.1 	76.5,96.5 76.1,96.1 "></polygon>
								<path fill-rule="evenodd" clip-rule="evenodd" fill="#FFFFFF" stroke="#010101" stroke-width="0.25" stroke-linecap="square" stroke-miterlimit="10" stroke-dasharray="4,8" d="	M77,96.7l0.2,1.1v0.9h0.9l0.7-0.2l0.7-0.7l0.7-0.9h0.5l0.5-0.2v-0.2L79,96.7H77L77,96.7z M77.2,99.3v0.5h0.2h0.7l0.9-0.2l0.7-0.7	l0.5-0.9l1.1-0.2v-0.2h-1.1L80,97.9l-0.5,0.5L78.8,99l-0.7,0.2h-0.7H77.2L77.2,99.3z M77.2,100.2l0.2,0.5v0.2l4.1-0.5v-0.9l-0.2-1.1	h-1.1L79.7,99l-0.5,0.5L79,99.9h-1.6L77.2,100.2L77.2,100.2z"></path>
								<polygon fill-rule="evenodd" clip-rule="evenodd" fill="#3A53A4" stroke="#010101" stroke-width="0.25" stroke-linecap="square" stroke-miterlimit="10" points="	77.2,98.8 77.2,99.3 77.4,99.3 78.1,99.3 78.8,99 79.5,98.3 80.2,97.4 81.3,97.4 81.3,97.2 81.1,96.7 80.7,97 80.2,97 79.7,97.4 	79.5,97.9 78.8,98.6 78.1,98.8 77.2,98.8 "></polygon>
								<polygon fill-rule="evenodd" clip-rule="evenodd" fill="#ED2224" stroke="#010101" stroke-width="0.25" stroke-linecap="square" stroke-miterlimit="10" points="	77.2,99.7 77.2,100.2 77.4,99.9 79,99.9 79.7,99 80.2,98.3 81.3,98.3 81.3,97.7 80.2,97.9 79.7,98.8 79,99.5 78.1,99.7 77.4,99.7 	77.2,99.7 "></polygon>
								<polygon fill-rule="evenodd" clip-rule="evenodd" fill="#010101" stroke="#010101" stroke-width="0.25" stroke-linecap="square" stroke-miterlimit="10" points="	80.9,98.3 80.7,98.3 79.7,98.1 79.5,98.6 79.5,99.3 79.5,99.7 80,99.9 80.2,100.2 80.7,99.9 80.9,99.5 81.1,99.5 80.7,100.2 	80.2,100.2 79.3,99.9 79,99.3 79,98.6 79.5,98.1 79.7,98.1 80,97.9 80.4,97.9 80.9,98.3 "></polygon>
								<polygon fill-rule="evenodd" clip-rule="evenodd" fill="#010101" stroke="#010101" stroke-width="0.25" stroke-linecap="square" stroke-miterlimit="10" points="	79.7,97.4 79.3,97.4 78.8,97.2 78.4,97.2 78.1,97.7 78.1,98.3 78.4,98.8 78.6,99 78.8,99.3 79,99.3 79.5,98.6 80,98.6 79.5,99 	79,99.3 78.1,99 77.9,98.8 77.7,98.3 77.9,97.7 78.1,97.4 78.1,97.2 78.8,97 79,97 79.5,97.2 79.7,97.4 "></polygon>
							</svg>
