<?xml version="1.0" encoding="utf-8"?>
<!-- Generator: Adobe Illustrator 16.0.0, SVG Export Plug-In . SVG Version: 6.00 Build 0)  -->
<!DOCTYPE svg PUBLIC "-//W3C//DTD SVG 1.1//EN" "http://www.w3.org/Graphics/SVG/1.1/DTD/svg11.dtd">
<svg version="1.1" id="图层_1" xmlns="http://www.w3.org/2000/svg" xmlns:xlink="http://www.w3.org/1999/xlink" x="0px" y="0px"
	 width="595.28px" height="841.89px" viewBox="0 0 595.28 841.89" enable-background="new 0 0 595.28 841.89" xml:space="preserve">
<g>
	<path fill="purple" stroke="#231815" stroke-miterlimit="10" d="M133.892,445.756c0,0,5.232,2.27,14.898,5.324
		c9.666,3.053,12.357,3.053,12.357,3.053l42.885-118.685l-43.34,7.021C145.886,397.156,133.892,445.756,133.892,445.756z"/>
	<path fill="green" stroke="#231815" stroke-width="0.75" stroke-miterlimit="10" d="M225.333,275.778l-48.148,7.801
		c-5.578,19.12-11.213,39.392-16.492,58.891l43.34-7.021l17.387-48.124L225.333,275.778z"/>
	<path fill="blue" stroke="#231815" stroke-miterlimit="10" d="M212.241,191.708c-6.357-0.034-20.506,41.994-35.057,91.871
		l48.148-7.801l23.563-69.526C248.896,206.252,222.679,191.764,212.241,191.708z"/>
	<path fill="pink" stroke="#231815" stroke-miterlimit="10" d="M434.587,342.47l-43.338-7.021l42.883,118.685
		c0,0,2.691,0,12.357-3.053c9.668-3.055,14.898-5.324,14.898-5.324S449.394,397.156,434.587,342.47z"/>
	<path fill="white" stroke="#231815" stroke-width="0.75" stroke-miterlimit="10" d="M391.249,335.448l43.338,7.021
		c-5.279-19.499-10.914-39.771-16.492-58.891l-48.148-7.801l3.914,11.546L391.249,335.448z"/>
	<path fill="black" stroke="#231815" stroke-miterlimit="10" d="M383.038,191.708c6.357-0.034,20.506,41.994,35.057,91.871
		l-48.148-7.801l-23.563-69.526C346.384,206.252,372.603,191.764,383.038,191.708z"/>
	<g>
		<defs>
			<path id="SVGID_1_"  d="M248.896,206.252c0,0-26.217-14.488-36.654-14.544c-15.629-0.084-78.35,254.05-78.35,254.05
				s5.232,2.27,14.898,5.322c9.666,3.055,12.357,3.055,12.357,3.055l60.271-166.811L248.896,206.252z"/>
		</defs>
		<clipPath id="SVGID_2_">
			<use xlink:href="#SVGID_1_" overflow="visible"/>
		</clipPath>
		
			<rect x="166.113" y="293.881" transform="matrix(0.1695 0.9855 -0.9855 0.1695 483.1354 114.5263)" clip-path="url(#SVGID_2_)" fill="#FFF100" stroke="#231815" stroke-width="0.25" stroke-miterlimit="10" width="15" height="100.103"/>
		
			<rect x="169.113" y="293.88" transform="matrix(0.1695 0.9855 -0.9855 0.1695 483.1461 114.5406)" clip-path="url(#SVGID_2_)" fill="#FFFFFF" stroke="#231815" stroke-width="0.25" stroke-miterlimit="10" width="9" height="100.105"/>
		
			<rect x="172.113" y="293.881" transform="matrix(0.1693 0.9856 -0.9856 0.1693 483.1988 114.6121)" clip-path="url(#SVGID_2_)" fill="#231815" stroke="#231815" stroke-width="0.25" stroke-miterlimit="10" width="3" height="100.103"/>
		
			<rect x="197.579" y="242.077" transform="matrix(0.16 0.9871 -0.9871 0.16 444.3574 37.6133)" clip-path="url(#SVGID_2_)" fill="#FFFFFF" stroke="#231815" stroke-width="0.25" stroke-miterlimit="10" width="5" height="75.622"/>
		
			<rect x="198.686" y="241.876" transform="matrix(0.1595 0.9872 -0.9872 0.1595 441.7641 35.2407)" clip-path="url(#SVGID_2_)" fill="#231815" stroke="#231815" stroke-width="0.25" stroke-miterlimit="10" width="3" height="70.35"/>
		
			<rect x="198.579" y="244.697" transform="matrix(0.1592 0.9873 -0.9873 0.1592 447.8721 40.6373)" clip-path="url(#SVGID_2_)" fill="#FFF100" stroke="#231815" stroke-width="0.25" stroke-miterlimit="10" width="3" height="77.109"/>
		<polygon clip-path="url(#SVGID_2_)" fill="red" stroke="#231815" stroke-width="0.25" stroke-miterlimit="10" points="
			198.448,217.532 198.433,232.896 213.04,237.658 198.425,242.391 198.407,257.754 189.39,245.315 174.774,250.048 
			183.817,237.627 174.798,225.189 189.405,229.952 		"/>
		<polygon clip-path="url(#SVGID_2_)" fill="red" stroke="#231815" stroke-width="0.25" stroke-miterlimit="10" points="
			189.825,243.983 177.745,247.894 185.218,237.629 177.765,227.349 189.837,231.286 197.312,221.02 197.298,233.718 
			209.37,237.654 197.292,241.565 197.278,254.263 		"/>
	</g>
	<g>
		<defs>
			<path id="SVGID_3_" d="M346.384,206.252c0,0,26.219-14.488,36.654-14.544c15.629-0.084,78.35,254.05,78.35,254.05
				s-5.23,2.27-14.898,5.322c-9.666,3.055-12.357,3.055-12.357,3.055l-60.271-166.81L346.384,206.252z"/>
		</defs>
		<clipPath id="SVGID_4_">
			<use xlink:href="#SVGID_3_"  overflow="visible"/>
		</clipPath>
		
			<rect x="410.692" y="293.88" transform="matrix(-0.1695 0.9855 -0.9855 -0.1695 828.0419 -9.9006)" clip-path="url(#SVGID_4_)" fill="red" stroke="#231815" stroke-width="0.25" stroke-miterlimit="10" width="15" height="100.105"/>
		
			<rect x="413.692" y="293.881" transform="matrix(-0.1695 0.9855 -0.9855 -0.1695 828.0255 -9.9196)" clip-path="url(#SVGID_4_)" fill="#FFFFFF" stroke="#231815" stroke-width="0.25" stroke-miterlimit="10" width="9" height="100.103"/>
		
			<rect x="416.692" y="293.88" transform="matrix(-0.1693 0.9856 -0.9856 -0.1693 827.9427 -10.0154)" clip-path="url(#SVGID_4_)" fill="pink" stroke="#231815" stroke-width="0.25" stroke-miterlimit="10" width="3" height="100.105"/>
		
			<rect x="357.391" y="277.388" transform="matrix(0.9871 0.1599 -0.1599 0.9871 49.8474 -59.6)" clip-path="url(#SVGID_4_)" fill="#FFFFFF" stroke="#231815" stroke-width="0.25" stroke-miterlimit="10" width="75.622" height="5"/>
		
			<rect x="359.918" y="275.551" transform="matrix(0.9872 0.1595 -0.1595 0.9872 49.2458 -59.4686)" clip-path="url(#SVGID_4_)" fill="#231815" stroke="#231815" stroke-width="0.25" stroke-miterlimit="10" width="70.352" height="3"/>
		
			<rect x="356.648" y="281.751" transform="matrix(0.9872 0.1592 -0.1592 0.9872 50.1455 -59.3155)" clip-path="url(#SVGID_4_)" fill="#FFF100" stroke="#231815" stroke-width="0.25" stroke-miterlimit="10" width="77.109" height="3"/>
		<polygon clip-path="url(#SVGID_4_)" fill="red" stroke="#231815" stroke-width="0.25" stroke-miterlimit="10" points="
			397.735,217.532 397.751,232.896 383.144,237.658 397.761,242.391 397.776,257.754 406.794,245.315 421.411,250.048 
			412.368,237.627 421.386,225.189 406.778,229.952 		"/>
		<polygon clip-path="url(#SVGID_4_)" fill="red" stroke="#231815" stroke-width="0.25" stroke-miterlimit="10" points="
			406.36,243.983 418.44,247.894 410.966,237.629 418.419,227.349 406.347,231.286 398.872,221.02 398.886,233.718 386.813,237.654 
			398.894,241.565 398.907,254.263 		"/>
	</g>
	<path fill="#FFFFFF" stroke="#231815" stroke-linecap="round" stroke-linejoin="round" stroke-miterlimit="10" d="M320.905,173.898
		h-47.002l-1-19.667c0,0,12,2,24,2c12.002,0,25.002-2,25.002-2L320.905,173.898z"/>
	<path fill="#FFFFFF" stroke="#231815" stroke-linecap="round" stroke-linejoin="round" stroke-miterlimit="10" d="M272.903,154.23
		c0,0-3.141,9.932-7.949,14.02c-7.014,5.961-5.787,5.648-5.787,5.648l32.07,31.665l46.668-29.333
		c-7.523-7.273-4.93-4.147-8.619-8.98c-3.682-4.824-7.715-13.02-7.715-13.02s-6.619,9.351-26,9
		C277.62,160.915,272.903,154.23,272.903,154.23z"/>
	<path fill="#FFF100" stroke="#231815" stroke-width="0.9722" stroke-miterlimit="10" d="M235.124,182.272l-22.084,8.847
		c0,0,9.453,56.5,7.563,69c0.299,1.373,1.174,6.4,2.338,13.507l40.986-32.155L235.124,182.272z"/>
	<path fill="#231815" stroke="#231815" stroke-miterlimit="10" d="M361.763,349.721l-65.859-19.153l-62.336,19.771
		c0.199,2.61,0.299,4.756,0.268,6.28c-0.473,24-9.604,39.5-14.803,62.5c8.352,4.41,36.35,6.717,48.994,7.222
		c15.236,0.608,29.613,0.278,29.613,0.278s14.377,0.33,29.615-0.278c12.643-0.505,40.643-2.812,48.992-7.222
		c-5.199-23-14.33-38.5-14.803-62.5C361.413,354.978,361.532,352.61,361.763,349.721z"/>
	<path fill="#FFF100" stroke="#231815" stroke-width="0.9722" stroke-miterlimit="10" d="M360.155,182.272l22.084,8.847
		c0,0-9.451,56.5-7.561,69c-0.301,1.373-1.176,6.4-2.34,13.507l-40.984-32.155L360.155,182.272z"/>
	<path fill="#FFFFFF" stroke="#231815" stroke-miterlimit="10" d="M361.763,349.721c1.416-17.668,7.211-55.568,10.576-76.095
		l-40.984-32.155l28.801-59.198l-26.596-10.653c0,0-5.408,10.842-15.365,15s-20.555,4-20.555,4s-10.598,0.158-20.555-4
		s-15.365-15-15.365-15l-26.596,10.653l28.803,59.198l-40.986,32.155c3.406,20.765,9.297,59.32,10.627,76.713l62.336-19.771
		L361.763,349.721z"/>
	<g>
		<defs>
			<path id="SVGID_5_" d="M372.339,273.626c1.164-7.107,2.039-12.134,2.34-13.507c-1.891-12.5,7.561-69,7.561-69l-22.084-8.847
				l-26.596-10.653c0,0-5.408,10.842-15.365,15s-20.555,4-20.555,4s-10.598,0.158-20.555-4s-15.365-15-15.365-15l-26.596,10.653
				l-22.084,8.847c0,0,9.453,56.5,7.563,69c0.299,1.373,1.174,6.4,2.338,13.507c3.918,23.882,11.125,71.312,10.895,82.993
				c-0.473,24-9.604,39.5-14.803,62.5c8.352,4.41,36.35,6.717,48.994,7.222c15.236,0.608,29.613,0.278,29.613,0.278
				s14.377,0.33,29.615-0.278c12.643-0.505,40.643-2.812,48.992-7.222c-5.199-23-14.33-38.5-14.803-62.5
				C361.214,344.938,368.423,297.508,372.339,273.626z"/>
		</defs>
		<clipPath id="SVGID_6_">
			<use xlink:href="#SVGID_5_"  overflow="visible"/>
		</clipPath>
		<polygon clip-path="url(#SVGID_6_)" fill="#FFFFFF" stroke="#231815" stroke-width="0.25" stroke-miterlimit="10" points="
			378.651,283.739 328.222,244.174 362.188,174.358 366.685,176.546 334.483,242.731 381.737,279.805 		"/>
		<polygon clip-path="url(#SVGID_6_)" fill="#231815" stroke="#231815" stroke-width="0.25" stroke-miterlimit="10" points="
			381.324,281.46 332.562,243.896 363.845,179.523 366.544,180.834 336.327,243.01 383.154,279.083 		"/>
		<polygon clip-path="url(#SVGID_6_)" fill="#FFF100" stroke="#231815" stroke-width="0.25" stroke-miterlimit="10" points="
			378.443,286.459 325.127,245.255 359.345,174.797 362.044,176.107 328.891,244.373 380.277,284.085 		"/>
		<polygon clip-path="url(#SVGID_6_)" fill="#FFFFFF" stroke="#231815" stroke-width="0.25" stroke-miterlimit="10" points="
			216.628,283.739 213.542,279.805 260.796,242.731 228.595,176.546 233.091,174.358 267.058,244.174 		"/>
		<polygon clip-path="url(#SVGID_6_)" fill="#231815" stroke="#231815" stroke-width="0.25" stroke-miterlimit="10" points="
			213.956,281.46 212.125,279.083 258.952,243.01 228.736,180.834 231.434,179.523 262.718,243.896 		"/>
		<polygon clip-path="url(#SVGID_6_)" fill="#FFF100" stroke="#231815" stroke-width="0.25" stroke-miterlimit="10" points="
			216.836,286.459 215.001,284.085 266.389,244.373 233.236,176.107 235.934,174.797 270.152,245.255 		"/>
		<polygon clip-path="url(#SVGID_6_)" fill="#FFF100" stroke="#231815" stroke-width="0.25" stroke-miterlimit="10" points="
			392.188,366.442 296.952,338.745 209.792,366.39 205.257,352.093 296.763,323.069 396.378,352.04 		"/>
		<polygon clip-path="url(#SVGID_6_)" fill="#FFFFFF" stroke="#231815" stroke-width="0.25" stroke-miterlimit="10" points="
			392.992,363.435 296.879,335.483 208.85,363.403 206.129,354.824 296.766,326.077 395.506,354.793 		"/>
		<polygon clip-path="url(#SVGID_6_)" fill="#231815" stroke="#231815" stroke-width="0.25" stroke-miterlimit="10" points="
			394.463,360.577 297.472,332.37 208.574,360.565 207.667,357.706 297.435,329.234 395.301,357.696 		"/>
		<path clip-path="url(#SVGID_6_)" fill="purple" stroke="#231815" stroke-width="3" stroke-miterlimit="10" d="M377.759,354.275"/>
		<path clip-path="url(#SVGID_6_)" fill="purple" stroke="#231815" stroke-width="3" stroke-miterlimit="10" d="M223.093,354.275"/>
		<path clip-path="url(#SVGID_6_)" fill="purple" stroke="#FFF100" stroke-width="3" stroke-miterlimit="10" d="M376.897,359.49"/>
		<path clip-path="url(#SVGID_6_)" fill="purple" stroke="#FFF100" stroke-width="3" stroke-miterlimit="10" d="M222.093,360.199"/>
		<path clip-path="url(#SVGID_6_)" fill="purple" stroke="#FFF100" stroke-width="3" stroke-miterlimit="10" d="M377.759,348.865"/>
		<path clip-path="url(#SVGID_6_)" fill="purple" stroke="#FFF100" stroke-width="3" stroke-miterlimit="10" d="M222.093,348.406"/>
	</g>
</g>
<path fill="#231815" stroke="#231815" stroke-width="1.0377" stroke-miterlimit="10" d="M392.958,553.348
	c-5.339-32.274-22.909-74.962-22.909-74.962l-71.554,5v1l-71.555-6c0,0-17.57,42.688-22.908,74.962
	c-5.34,32.274-10.385,98.022-10.385,98.022s20.458,4.549,52.652,6.986c32.193,2.438,52.195,1.953,52.195,1.953
	s20.002,0.484,52.195-1.953c32.194-2.438,52.652-6.986,52.652-6.986S398.297,585.622,392.958,553.348z"/>
<path fill="#FFF100" stroke="#231815" stroke-width="0.25" stroke-miterlimit="10" d="M303.537,661.078
	c-2.752,0-4.465-0.03-5.042-0.042c-2.308,0.049-22.808,0.385-55.186-2.067c-33.844-2.563-50.244-6.26-51.141-6.459l1.649-15.473
	c0.209,0.047,18.051,3.817,50.676,6.287c32.9,2.491,53.607,2.026,53.811,2.023l0.188-0.005l0.19,0.005
	c0.206,0.005,20.992,0.462,53.811-2.023c32.626-2.47,49.811-7.096,50.02-7.143l1.829,16.604c-0.896,0.199-16.819,3.621-50.664,6.184
	C329.396,660.808,311.794,661.078,303.537,661.078z"/>
<path fill="#FFFFFF" stroke="#231815" stroke-width="0.25" stroke-miterlimit="10" d="M303.21,657.728
	c-2.683,0-4.294-0.028-4.715-0.037c-1.694,0.034-22.66,0.387-54.933-2.057c-33.608-2.544-50.151-6.263-51.038-6.46l1.123-8.955
	c0.212,0.047,17.688,3.949,50.595,6.44c33.02,2.5,53.937,2.038,54.145,2.031l0.107-0.002l0.109,0.002
	c0.207,0.007,21.125,0.468,54.144-2.031c32.907-2.491,50.072-6.111,50.284-6.158l0.854,8.783c-0.887,0.197-16.851,3.806-50.459,6.35
	C329.181,657.47,311.314,657.727,303.21,657.728z"/>
<path fill="#231815" stroke="#231815" stroke-width="0.25" stroke-miterlimit="10" d="M303.231,654.638
	c-3.063,0-4.715-0.037-4.772-0.038c-0.138,0.004-21.308,0.479-54.67-2.047c-33.394-2.528-51.05-6.482-51.265-6.53l0.725-2.714
	c0.214,0.047,17.605,3.742,50.767,6.252c33.198,2.514,54.233,2.046,54.443,2.039c0.281,0.008,21.318,0.476,54.515-2.039
	c33.161-2.51,50.155-6.205,50.369-6.252l0.543,3.177c-0.215,0.048-17.292,3.539-50.686,6.067
	C329.041,654.382,311.273,654.638,303.231,654.638z"/>
<path fill="#231815" stroke="#231815" stroke-width="1.0377" stroke-miterlimit="10" d="M366.946,466.348c0,0-39.57,7-70.238,7
	c-30.666,0-66.768-7-66.768-7l-3,12.038c0,0,40.768,7,70.102,7c29.333,0,72.904-7,72.904-7L366.946,466.348z"/>
<polygon fill="#231815" points="349.263,593.73 349.263,659.291 353.679,658.969 "/>
</svg>
