<?xml version="1.0" encoding="utf-8"?>
<!-- Generator: Adobe Illustrator 16.0.0, SVG Export Plug-In . SVG Version: 6.00 Build 0)  -->
<!DOCTYPE svg PUBLIC "-//W3C//DTD SVG 1.1//EN" "http://www.w3.org/Graphics/SVG/1.1/DTD/svg11.dtd">
<svg version="1.1" id="图层_1" xmlns="http://www.w3.org/2000/svg" xmlns:xlink="http://www.w3.org/1999/xlink" x="0px" y="0px"
	 width="595.28px" height="841.89px" viewBox="0 0 595.28 841.89" enable-background="new 0 0 595.28 841.89" xml:space="preserve">
<g>
	<path fill="#FFFFFF" stroke="#231815" stroke-miterlimit="10" d="M118.94,482.872c0,0,5.232,2.27,14.898,5.324
		c9.666,3.053,12.357,3.053,12.357,3.053l42.885-118.685l-43.34,7.021C130.935,434.272,118.94,482.872,118.94,482.872z"/>
	<path fill="#FFFFFF" stroke="#231815" stroke-width="0.75" stroke-miterlimit="10" d="M210.382,312.894l-48.148,7.801
		c-5.578,19.12-11.213,39.392-16.492,58.891l43.34-7.021l17.387-48.124L210.382,312.894z"/>
	<path fill="#FFFFFF" stroke="#231815" stroke-miterlimit="10" d="M197.29,228.824c-6.357-0.034-20.506,41.994-35.057,91.871
		l48.148-7.801l23.563-69.526C233.944,243.368,207.728,228.88,197.29,228.824z"/>
	<path fill="#FFFFFF" stroke="#231815" stroke-miterlimit="10" d="M419.636,379.586l-43.338-7.021l42.883,118.685
		c0,0,2.691,0,12.357-3.053c9.668-3.055,14.898-5.324,14.898-5.324S434.442,434.272,419.636,379.586z"/>
	<path fill="#FFFFFF" stroke="#231815" stroke-width="0.75" stroke-miterlimit="10" d="M376.298,372.564l43.338,7.021
		c-5.279-19.499-10.914-39.771-16.492-58.891l-48.148-7.801l3.914,11.546L376.298,372.564z"/>
	<path fill="#FFFFFF" stroke="#231815" stroke-miterlimit="10" d="M368.087,228.824c6.357-0.034,20.506,41.994,35.057,91.871
		l-48.148-7.801l-23.563-69.526C331.433,243.368,357.651,228.88,368.087,228.824z"/>
	<g>
		<defs>
			<path id="SVGID_1_" d="M233.944,243.368c0,0-26.217-14.488-36.654-14.544c-15.629-0.084-78.35,254.05-78.35,254.05
				s5.232,2.27,14.898,5.322c9.666,3.055,12.357,3.055,12.357,3.055l60.271-166.811L233.944,243.368z"/>
		</defs>
		<clipPath id="SVGID_2_">
			<use xlink:href="#SVGID_1_"  overflow="visible"/>
		</clipPath>
		
			<rect x="151.162" y="330.997" transform="matrix(0.1695 0.9855 -0.9855 0.1695 507.2978 160.085)" clip-path="url(#SVGID_2_)" fill="#FFFFFF" stroke="#231815" stroke-width="0.25" stroke-miterlimit="10" width="15" height="100.103"/>
		
			<rect x="154.162" y="330.996" transform="matrix(0.1695 0.9855 -0.9855 0.1695 507.3081 160.1012)" clip-path="url(#SVGID_2_)" fill="#FFFFFF" stroke="#231815" stroke-width="0.25" stroke-miterlimit="10" width="9" height="100.105"/>
		
			<rect x="157.162" y="330.997" transform="matrix(0.1693 0.9856 -0.9856 0.1693 507.3589 160.1818)" clip-path="url(#SVGID_2_)" fill="#FFFFFF" stroke="#231815" stroke-width="0.25" stroke-miterlimit="10" width="3" height="100.103"/>
		
			<rect x="182.628" y="279.193" transform="matrix(0.16 0.9871 -0.9871 0.16 468.4361 83.5509)" clip-path="url(#SVGID_2_)" fill="#FFFFFF" stroke="#231815" stroke-width="0.25" stroke-miterlimit="10" width="5" height="75.622"/>
		
			<rect x="183.735" y="278.993" transform="matrix(0.1595 0.9872 -0.9872 0.1595 465.8386 81.1971)" clip-path="url(#SVGID_2_)" fill="#FFFFFF" stroke="#231815" stroke-width="0.25" stroke-miterlimit="10" width="3" height="70.35"/>
		
			<rect x="183.628" y="281.813" transform="matrix(0.1592 0.9873 -0.9873 0.1592 471.9438 86.6063)" clip-path="url(#SVGID_2_)" fill="#FFFFFF" stroke="#231815" stroke-width="0.25" stroke-miterlimit="10" width="3" height="77.109"/>
		<polygon clip-path="url(#SVGID_2_)" fill="#FFFFFF" stroke="#231815" stroke-width="0.25" stroke-miterlimit="10" points="
			183.497,254.648 183.481,270.012 198.089,274.774 183.474,279.507 183.456,294.87 174.438,282.432 159.823,287.164 
			168.866,274.744 159.847,262.305 174.454,267.068 		"/>
		<polygon clip-path="url(#SVGID_2_)" fill="#FFFFFF" stroke="#231815" stroke-width="0.25" stroke-miterlimit="10" points="
			174.874,281.099 162.794,285.01 170.267,274.745 162.813,264.465 174.886,268.402 182.36,258.136 182.347,270.834 
			194.419,274.771 182.341,278.682 182.327,291.379 		"/>
	</g>
	<g>
		<defs>
			<path id="SVGID_3_" d="M331.433,243.368c0,0,26.219-14.488,36.654-14.544c15.629-0.084,78.35,254.05,78.35,254.05
				s-5.23,2.27-14.898,5.322c-9.666,3.055-12.357,3.055-12.357,3.055l-60.271-166.81L331.433,243.368z"/>
		</defs>
		<clipPath id="SVGID_4_">
			<use xlink:href="#SVGID_3_"  overflow="visible"/>
		</clipPath>
		
			<rect x="395.741" y="330.996" transform="matrix(-0.1695 0.9855 -0.9855 -0.1695 847.135 48.2426)" clip-path="url(#SVGID_4_)" fill="#FFFFFF" stroke="#231815" stroke-width="0.25" stroke-miterlimit="10" width="15" height="100.105"/>
		
			<rect x="398.741" y="330.997" transform="matrix(-0.1695 0.9855 -0.9855 -0.1695 847.1196 48.222)" clip-path="url(#SVGID_4_)" fill="#FFFFFF" stroke="#231815" stroke-width="0.25" stroke-miterlimit="10" width="9" height="100.103"/>
		
			<rect x="401.741" y="330.996" transform="matrix(-0.1693 0.9856 -0.9856 -0.1693 847.0417 48.1183)" clip-path="url(#SVGID_4_)" fill="#FFFFFF" stroke="#231815" stroke-width="0.25" stroke-miterlimit="10" width="3" height="100.105"/>
		
			<rect x="342.44" y="314.504" transform="matrix(0.9871 0.1599 -0.1599 0.9871 55.5907 -56.7313)" clip-path="url(#SVGID_4_)" fill="#FFFFFF" stroke="#231815" stroke-width="0.25" stroke-miterlimit="10" width="75.622" height="5"/>
		
			<rect x="344.967" y="312.667" transform="matrix(0.9872 0.1595 -0.1595 0.9872 54.9742 -56.6089)" clip-path="url(#SVGID_4_)" fill="#FFFFFF" stroke="#231815" stroke-width="0.25" stroke-miterlimit="10" width="70.352" height="3"/>
		
			<rect x="341.697" y="318.867" transform="matrix(0.9872 0.1592 -0.1592 0.9872 55.8649 -56.4612)" clip-path="url(#SVGID_4_)" fill="#FFFFFF" stroke="#231815" stroke-width="0.25" stroke-miterlimit="10" width="77.109" height="3"/>
		<polygon clip-path="url(#SVGID_4_)" fill="#FFFFFF" stroke="#231815" stroke-width="0.25" stroke-miterlimit="10" points="
			382.784,254.648 382.8,270.012 368.192,274.774 382.81,279.507 382.825,294.87 391.843,282.432 406.46,287.164 397.417,274.744 
			406.435,262.305 391.827,267.068 		"/>
		<polygon clip-path="url(#SVGID_4_)" fill="#FFFFFF" stroke="#231815" stroke-width="0.25" stroke-miterlimit="10" points="
			391.409,281.099 403.489,285.01 396.015,274.745 403.468,264.465 391.396,268.402 383.921,258.136 383.935,270.834 
			371.862,274.771 383.942,278.682 383.956,291.379 		"/>
	</g>
	<path fill="#FFFFFF" stroke="#231815" stroke-linecap="round" stroke-linejoin="round" stroke-miterlimit="10" d="M305.954,211.014
		h-47.002l-1-19.667c0,0,12,2,24,2c12.002,0,25.002-2,25.002-2L305.954,211.014z"/>
	<path fill="#FFFFFF" stroke="#231815" stroke-linecap="round" stroke-linejoin="round" stroke-miterlimit="10" d="M257.952,191.347
		c0,0-3.141,9.932-7.949,14.02c-7.014,5.961-5.787,5.648-5.787,5.648l32.07,31.665l46.668-29.333
		c-7.523-7.273-4.93-4.147-8.619-8.98c-3.682-4.824-7.715-13.02-7.715-13.02s-6.619,9.351-26,9
		C262.669,198.031,257.952,191.347,257.952,191.347z"/>
	<path fill="#FFFFFF" stroke="#231815" stroke-width="0.9722" stroke-miterlimit="10" d="M220.173,219.389l-22.084,8.847
		c0,0,9.453,56.5,7.563,69c0.299,1.373,1.174,6.4,2.338,13.507l40.986-32.155L220.173,219.389z"/>
	<path fill="#FFFFFF" stroke="#231815" stroke-miterlimit="10" d="M346.812,386.837l-65.859-19.153l-62.336,19.771
		c0.199,2.61,0.299,4.756,0.268,6.28c-0.473,24-9.604,39.5-14.803,62.5c8.352,4.41,36.35,6.717,48.994,7.222
		c15.236,0.608,29.613,0.278,29.613,0.278s14.377,0.33,29.615-0.278c12.643-0.505,40.643-2.812,48.992-7.222
		c-5.199-23-14.33-38.5-14.803-62.5C346.462,392.094,346.581,389.727,346.812,386.837z"/>
	<path fill="#FFFFFF" stroke="#231815" stroke-width="0.9722" stroke-miterlimit="10" d="M345.204,219.389l22.084,8.847
		c0,0-9.451,56.5-7.561,69c-0.301,1.373-1.176,6.4-2.34,13.507l-40.984-32.155L345.204,219.389z"/>
	<path fill="#FFFFFF" stroke="#231815" stroke-miterlimit="10" d="M346.812,386.837c1.416-17.668,7.211-55.568,10.576-76.095
		l-40.984-32.155l28.801-59.198l-26.596-10.653c0,0-5.408,10.842-15.365,15s-20.555,4-20.555,4s-10.598,0.158-20.555-4
		s-15.365-15-15.365-15l-26.596,10.653l28.803,59.198l-40.986,32.155c3.406,20.765,9.297,59.32,10.627,76.713l62.336-19.771
		L346.812,386.837z"/>
	<g>
		<defs>
			<path id="SVGID_5_" d="M357.388,310.742c1.164-7.107,2.039-12.134,2.34-13.507c-1.891-12.5,7.561-69,7.561-69l-22.084-8.847
				l-26.596-10.653c0,0-5.408,10.842-15.365,15s-20.555,4-20.555,4s-10.598,0.158-20.555-4s-15.365-15-15.365-15l-26.596,10.653
				l-22.084,8.847c0,0,9.453,56.5,7.563,69c0.299,1.373,1.174,6.4,2.338,13.507c3.918,23.882,11.125,71.312,10.895,82.993
				c-0.473,24-9.604,39.5-14.803,62.5c8.352,4.41,36.35,6.717,48.994,7.222c15.236,0.608,29.613,0.278,29.613,0.278
				s14.377,0.33,29.615-0.278c12.643-0.505,40.643-2.812,48.992-7.222c-5.199-23-14.33-38.5-14.803-62.5
				C346.263,382.054,353.472,334.625,357.388,310.742z"/>
		</defs>
		<clipPath id="SVGID_6_">
			<use xlink:href="#SVGID_5_"  overflow="visible"/>
		</clipPath>
		<polygon clip-path="url(#SVGID_6_)" fill="#FFFFFF" stroke="#231815" stroke-width="0.25" stroke-miterlimit="10" points="
			363.7,320.855 313.271,281.29 347.237,211.475 351.733,213.662 319.532,279.848 366.786,316.921 		"/>
		<polygon clip-path="url(#SVGID_6_)" fill="#FFFFFF" stroke="#231815" stroke-width="0.25" stroke-miterlimit="10" points="
			366.373,318.577 317.61,281.012 348.894,216.639 351.593,217.951 321.376,280.126 368.203,316.2 		"/>
		<polygon clip-path="url(#SVGID_6_)" fill="#FFFFFF" stroke="#231815" stroke-width="0.25" stroke-miterlimit="10" points="
			363.492,323.575 310.176,282.372 344.394,211.913 347.093,213.224 313.939,281.489 365.326,321.201 		"/>
		<polygon clip-path="url(#SVGID_6_)" fill="#FFFFFF" stroke="#231815" stroke-width="0.25" stroke-miterlimit="10" points="
			201.677,320.855 198.591,316.921 245.845,279.848 213.644,213.662 218.14,211.475 252.106,281.29 		"/>
		<polygon clip-path="url(#SVGID_6_)" fill="#FFFFFF" stroke="#231815" stroke-width="0.25" stroke-miterlimit="10" points="
			199.004,318.577 197.173,316.2 244.001,280.126 213.785,217.951 216.483,216.639 247.767,281.012 		"/>
		<polygon clip-path="url(#SVGID_6_)" fill="#FFFFFF" stroke="#231815" stroke-width="0.25" stroke-miterlimit="10" points="
			201.885,323.575 200.05,321.201 251.438,281.489 218.285,213.224 220.983,211.913 255.201,282.372 		"/>
		<polygon clip-path="url(#SVGID_6_)" fill="#FFFFFF" stroke="#231815" stroke-width="0.25" stroke-miterlimit="10" points="
			377.237,403.559 282.001,375.861 194.841,403.506 190.306,389.209 281.812,360.186 381.427,389.156 		"/>
		<polygon clip-path="url(#SVGID_6_)" fill="#FFFFFF" stroke="#231815" stroke-width="0.25" stroke-miterlimit="10" points="
			378.041,400.551 281.928,372.6 193.898,400.52 191.178,391.94 281.814,363.193 380.555,391.909 		"/>
		<polygon clip-path="url(#SVGID_6_)" fill="#FFFFFF" stroke="#231815" stroke-width="0.25" stroke-miterlimit="10" points="
			379.512,397.693 282.521,369.486 193.623,397.681 192.716,394.822 282.484,366.35 380.35,394.812 		"/>
		<path clip-path="url(#SVGID_6_)" fill="none" stroke="#231815" stroke-width="3" stroke-miterlimit="10" d="M362.808,391.392"/>
		<path clip-path="url(#SVGID_6_)" fill="none" stroke="#231815" stroke-width="3" stroke-miterlimit="10" d="M208.142,391.392"/>
		<path clip-path="url(#SVGID_6_)" fill="none" stroke="#FFF100" stroke-width="3" stroke-miterlimit="10" d="M361.946,396.606"/>
		<path clip-path="url(#SVGID_6_)" fill="none" stroke="#FFF100" stroke-width="3" stroke-miterlimit="10" d="M207.142,397.315"/>
		<path clip-path="url(#SVGID_6_)" fill="none" stroke="#FFF100" stroke-width="3" stroke-miterlimit="10" d="M362.808,385.981"/>
		<path clip-path="url(#SVGID_6_)" fill="none" stroke="#FFF100" stroke-width="3" stroke-miterlimit="10" d="M207.142,385.522"/>
	</g>
</g>
<path fill="#FFFFFF" stroke="#231815" stroke-width="1.0377" stroke-miterlimit="10" d="M378.007,590.464
	c-5.339-32.274-22.909-74.962-22.909-74.962l-71.554,5v1l-71.555-6c0,0-17.57,42.688-22.908,74.962
	c-5.34,32.274-10.385,98.022-10.385,98.022s20.458,4.549,52.652,6.986c32.193,2.438,52.195,1.953,52.195,1.953
	s20.002,0.484,52.195-1.953c32.194-2.438,52.652-6.986,52.652-6.986S383.346,622.738,378.007,590.464z"/>
<path fill="#FFFFFF" stroke="#231815" stroke-width="0.25" stroke-miterlimit="10" d="M288.586,698.194
	c-2.752,0-4.465-0.03-5.042-0.042c-2.308,0.049-22.808,0.385-55.186-2.067c-33.844-2.563-50.244-6.26-51.141-6.459l1.649-15.473
	c0.209,0.047,18.051,3.817,50.676,6.287c32.9,2.491,53.607,2.026,53.811,2.023l0.188-0.005l0.19,0.005
	c0.206,0.005,20.992,0.462,53.811-2.023c32.626-2.47,49.811-7.096,50.02-7.143l1.829,16.604c-0.896,0.199-16.819,3.621-50.664,6.184
	C314.445,697.924,296.843,698.194,288.586,698.194z"/>
<path fill="#FFFFFF" stroke="#231815" stroke-width="0.25" stroke-miterlimit="10" d="M288.259,694.844
	c-2.683,0-4.294-0.028-4.715-0.037c-1.694,0.034-22.66,0.387-54.933-2.057c-33.608-2.544-50.151-6.263-51.038-6.46l1.123-8.955
	c0.212,0.047,17.688,3.949,50.595,6.44c33.02,2.5,53.937,2.038,54.145,2.031l0.107-0.002l0.109,0.002
	c0.207,0.007,21.125,0.468,54.144-2.031c32.907-2.491,50.072-6.111,50.284-6.158l0.854,8.783c-0.887,0.197-16.851,3.806-50.459,6.35
	C314.229,694.586,296.363,694.843,288.259,694.844z"/>
<path fill="#FFFFFF" stroke="#231815" stroke-width="0.25" stroke-miterlimit="10" d="M288.28,691.754
	c-3.063,0-4.715-0.037-4.772-0.038c-0.138,0.004-21.308,0.479-54.67-2.047c-33.394-2.528-51.05-6.482-51.265-6.53l0.725-2.714
	c0.214,0.047,17.605,3.742,50.767,6.252c33.198,2.514,54.233,2.046,54.443,2.039c0.281,0.008,21.318,0.476,54.515-2.039
	c33.161-2.51,50.155-6.205,50.369-6.252l0.543,3.177c-0.215,0.048-17.292,3.539-50.686,6.067
	C314.09,691.498,296.322,691.754,288.28,691.754z"/>
<path fill="#FFFFFF" stroke="#231815" stroke-width="1.0377" stroke-miterlimit="10" d="M351.995,503.464c0,0-39.57,7-70.238,7
	c-30.666,0-66.768-7-66.768-7l-3,12.038c0,0,40.768,7,70.102,7c29.333,0,72.904-7,72.904-7L351.995,503.464z"/>
<polygon fill="#FFFFFF" points="334.312,630.847 334.312,696.407 338.728,696.085 "/>
</svg>
