<?xml version="1.0" encoding="utf-8"?>
<!-- Generator: Adobe Illustrator 16.0.0, SVG Export Plug-In . SVG Version: 6.00 Build 0)  -->
<!DOCTYPE svg PUBLIC "-//W3C//DTD SVG 1.1//EN" "http://www.w3.org/Graphics/SVG/1.1/DTD/svg11.dtd">
<svg version="1.1" id="图层_1" xmlns="http://www.w3.org/2000/svg" xmlns:xlink="http://www.w3.org/1999/xlink" x="0px" y="0px"
	 width="595.28px" height="841.89px" viewBox="0 0 595.28 841.89" enable-background="new 0 0 595.28 841.89" xml:space="preserve">
<path fill="#FFFFFF" stroke="#040000" d="M174.233,308.363h-64.179v-44.081c0,0,16.254,5.676,31.682,5.909
	c11.489,0.173,32.497-5.909,32.497-5.909V308.363z"/>
<path fill="#FFFFFF" stroke="#040000" d="M110.055,264.282L81.39,278.105c0,0-4.9,3.453-11.694,26.508L20.607,462.319
	c0,0,4.214,3.476,12.285,6.165c8.072,2.691,13.061,2.491,13.061,2.491l43.883-123.45c0,0,1.915,14.978-1.667,44.873
	c0,0-4.485,45.405-4.485,61.205c0,0,22.64,13.103,59.178,13.286c37.52,0.19,57.796-13.286,57.796-13.286
	c0-15.8-4.486-61.205-4.486-61.205c-3.583-29.896-1.668-44.873-1.668-44.873l43.883,123.45c0,0,7.635-0.888,13.264-3.053
	c5.629-2.164,12.084-5.604,12.084-5.604l-49.089-157.706c-6.794-23.055-11.695-26.508-11.695-26.508l-29.107-14.266
	c-0.002,0.001-6.058,29.867-32.447,29.353C119.399,292.764,110.055,264.282,110.055,264.282z"/>
<g>
	<g>
		<path fill="none" stroke="#040000" stroke-width="0.5" d="M83.684,450.65c0,0,0.296,0.171,0.875,0.475"/>
		<path fill="none" stroke="#040000" stroke-width="0.5" stroke-dasharray="2.0196,2.0196" d="M86.36,452.028
			c6.993,3.37,27.313,11.762,56.502,11.908c31.169,0.158,50.438-9.115,56.068-12.26"/>
		<path fill="none" stroke="#040000" stroke-width="0.5" d="M199.811,451.172c0.564-0.332,0.848-0.521,0.848-0.521"/>
	</g>
</g>
<g>
	<g>
		<path fill="none" stroke="#040000" stroke-width="0.5" d="M83.684,449.473c0,0,0.296,0.171,0.875,0.475"/>
		<path fill="none" stroke="#040000" stroke-width="0.5" stroke-dasharray="2.0196,2.0196" d="M86.36,450.851
			c6.992,3.37,27.312,11.763,56.502,11.91c31.169,0.157,50.438-9.117,56.068-12.261"/>
		<path fill="none" stroke="#040000" stroke-width="0.5" d="M199.811,449.994c0.564-0.332,0.848-0.521,0.848-0.521"/>
	</g>
</g>
<path fill="none" stroke="#040000" stroke-width="2" d="M117.142,262.068"/>
<path fill="none" stroke="#040000" d="M81.39,278.105c0,0,8.581,28.745,8.572,70.662"/>
<path fill="none" stroke="#040000" stroke-width="2" d="M167.201,262.068"/>
<path fill="none" stroke="#040000" d="M202.951,278.105c0,0-8.58,28.745-8.572,70.662"/>
<path fill="#FFFFFF" stroke="#000000" d="M139.715,276.238c-19.49,0-32.686-5.194-34.722-7.23c0,0,4.612-5.626,4.605-5.63
	c0.219,0.139,25.294,12.709,64.131,0l2.689,6.872C162.843,274.692,150.342,276.238,139.715,276.238z"/>
<path fill="#FFFFFF" stroke="#000000" d="M206.086,281.353c-2.086-4.426-16.47-11.279-25.912-15.388l0.017-0.046l-0.682-0.242
	c-2.317-1.001-4.299-1.824-5.66-2.378l-0.131,0.323l-0.104-0.037l-0.225,0.642c-0.16,0.457-0.346,0.986-0.555,1.563l-0.661,1.622
	c0.015,0.006,0.029,0.012,0.044,0.018c-3.205,8.214-10.983,23.227-30.39,23.806c-19.349,0.565-31.446-26.627-31.564-26.899
	l-0.163,0.071l-0.431-1.126c-4.502,1.724-27.117,10.601-30.216,16.139C59.55,314.99,21.384,456.673,19.769,462.687l4.289,1.786
	c0.394-1.467,39.636-147.794,59.27-182.885c1.297-2.318,11.277-7.346,21.851-11.734c3.92,7.635,16.376,28.369,36.021,28.369
	c0.276,0,0.557-0.004,0.835-0.012c11.581-0.346,21.13-4.973,28.383-13.75c4.137-5.007,6.689-10.439,8.222-14.31
	c11.389,5.005,22.324,10.75,23.429,13.096c22.894,48.576,57,179.895,57.342,181.208l4.298-1.752
	C263.366,461.385,229.156,330.302,206.086,281.353z"/>
<g>
	<g>
		<path fill="none" stroke="#040000" stroke-width="0.5" d="M20.607,459.366c0,0,0.269,0.222,0.799,0.596"/>
		<path fill="none" stroke="#040000" stroke-width="0.5" stroke-dasharray="1.9342,1.9342" d="M23.021,461.02
			c2.038,1.251,5.35,3.005,9.872,4.512c5.075,1.692,8.931,2.241,11.095,2.416"/>
		<path fill="none" stroke="#040000" stroke-width="0.5" d="M44.957,468.008c0.653,0.028,0.997,0.015,0.997,0.015"/>
	</g>
</g>
<g>
	<g>
		<path fill="none" stroke="#040000" stroke-width="0.5" d="M20.607,458.432c0,0,0.269,0.222,0.799,0.596"/>
		<path fill="none" stroke="#040000" stroke-width="0.5" stroke-dasharray="1.9343,1.9343" d="M23.021,460.085
			c2.038,1.251,5.349,3.006,9.872,4.513c5.075,1.691,8.931,2.24,11.095,2.415"/>
		<path fill="none" stroke="#040000" stroke-width="0.5" d="M44.957,467.074c0.653,0.028,0.997,0.015,0.997,0.015"/>
	</g>
</g>
<polygon fill="#FFFFFF" stroke="#036EB8" stroke-width="3" points="387.271,171.979 376.455,170.94 377.854,108.904 
	387.518,109.094 "/>
<polygon fill="#FFFFFF" stroke="#036EB8" stroke-width="3" points="440.201,171.979 429.383,170.94 430.783,108.904 
	440.445,109.094 "/>
<path fill="#557495" stroke="#000000" d="M488.117,340.781c-1.346-39.209-6.139-31.927-8.539-59.302
	c-0.357-16.75-5.322-71.537-5.322-71.537s-10.844-5.852-17.41-14.104s-16.561-31.913-16.561-31.913h-66.004
	c0,0-6.836,26.728-13.803,33.725c-6.967,6.997-17.561,10.454-17.561,10.454s-4.059,48.995-4.953,61.299
	c-2.398,33.01-6.941,15.929-10.678,71.379c-5.422,80.494,4.168,325.595,4.168,325.595l28.709,0.635l30.16-0.635l16.855-271.063
	l17.9,271.063c0,0,11.85,0.635,28.98,0.635c17.129,0,29.889-0.635,29.889-0.635S490.781,418.355,488.117,340.781z"/>
<path fill="none" stroke="#FFFFFF" stroke-width="4" d="M483.951,666.303c0,0,6.83-248.02,4.166-325.594
	c-1.344-39.209-6.139-31.928-8.539-59.302c-0.355-16.75-5.322-71.537-5.322-71.537"/>
<path fill="none" stroke="#FFFFFF" stroke-width="4" d="M342.918,208.031c0,0-4.057,48.995-4.951,61.298
	c-2.4,33.01-6.943,15.928-10.678,71.379c-5.422,80.494,4.168,325.594,4.168,325.594"/>
<g>
	<rect x="319.436" y="639.843" fill="none" width="13.037" height="17.966"/>
	<circle fill="#FFFFFF" stroke="#000000" stroke-width="0.33" cx="331.736" cy="640.579" r="0.631"/>
	<circle fill="#FFFFFF" stroke="#000000" stroke-width="0.33" cx="330.908" cy="641.532" r="0.631"/>
	<circle fill="#FFFFFF" stroke="#000000" stroke-width="0.33" cx="330.08" cy="642.486" r="0.632"/>
	<circle fill="#FFFFFF" stroke="#000000" stroke-width="0.33" cx="329.252" cy="643.438" r="0.631"/>
	<circle fill="#FFFFFF" stroke="#000000" stroke-width="0.33" cx="328.424" cy="644.392" r="0.631"/>
	<circle fill="#FFFFFF" stroke="#000000" stroke-width="0.33" cx="327.596" cy="645.345" r="0.631"/>
	<circle fill="#FFFFFF" stroke="#000000" stroke-width="0.33" cx="326.768" cy="646.298" r="0.631"/>
	<circle fill="#FFFFFF" stroke="#000000" stroke-width="0.33" cx="325.939" cy="647.252" r="0.631"/>
	<path fill="#FFFFFF" stroke="#000000" stroke-width="0.33" d="M321.404,657.313c-5.619-2.461,3.146-10.251,4.271-9.758
		C326.803,648.049,327.52,659.99,321.404,657.313z M325.504,648.071c-0.678-0.297-5.943,4.384-2.566,5.862
		C326.609,655.541,326.18,648.366,325.504,648.071z"/>
	<path fill="#FFFFFF" stroke="#000000" stroke-width="0.33" d="M325.531,650.929c-0.924,1.258-2.277,1.832-3.027,1.283
		c-0.752-0.55-0.611-2.016,0.311-3.274c0.922-1.258,2.277-1.832,3.027-1.283C326.592,648.205,326.453,649.67,325.531,650.929z
		 M325.596,648.34c0.053-0.123-0.002-0.266-0.125-0.318c-0.123-0.055-0.266,0.002-0.318,0.124s0.002,0.265,0.125,0.318
		C325.398,648.518,325.541,648.462,325.596,648.34z"/>
</g>
<g>
	<rect x="318.734" y="619.704" fill="none" width="13.037" height="17.965"/>
	<circle fill="#FFFFFF" stroke="#000000" stroke-width="0.33" cx="331.036" cy="620.44" r="0.632"/>
	<path fill="#FFFFFF" stroke="#000000" stroke-width="0.33" d="M330.684,621.808c-0.229,0.263-0.627,0.291-0.889,0.063
		c-0.266-0.229-0.293-0.628-0.064-0.891c0.23-0.264,0.629-0.291,0.891-0.063C330.885,621.146,330.912,621.544,330.684,621.808z"/>
	<circle fill="#FFFFFF" stroke="#000000" stroke-width="0.33" cx="329.379" cy="622.346" r="0.631"/>
	<circle fill="#FFFFFF" stroke="#000000" stroke-width="0.33" cx="328.552" cy="623.3" r="0.632"/>
	<path fill="#FFFFFF" stroke="#000000" stroke-width="0.33" d="M328.199,624.667c-0.229,0.263-0.627,0.291-0.889,0.063
		c-0.264-0.229-0.293-0.628-0.064-0.892c0.23-0.263,0.629-0.291,0.891-0.062C328.4,624.004,328.43,624.403,328.199,624.667z"/>
	<circle fill="#FFFFFF" stroke="#000000" stroke-width="0.33" cx="326.896" cy="625.206" r="0.632"/>
	<circle fill="#FFFFFF" stroke="#000000" stroke-width="0.33" cx="326.067" cy="626.159" r="0.631"/>
	<circle fill="#FFFFFF" stroke="#000000" stroke-width="0.33" cx="325.239" cy="627.112" r="0.632"/>
	<path fill="#FFFFFF" stroke="#000000" stroke-width="0.33" d="M320.705,637.174c-5.621-2.46,3.146-10.25,4.271-9.758
		C326.102,627.909,326.818,639.851,320.705,637.174z M324.803,627.932c-0.676-0.297-5.943,4.384-2.566,5.862
		C325.91,635.402,325.479,628.228,324.803,627.932z"/>
	<path fill="#FFFFFF" stroke="#000000" stroke-width="0.33" d="M324.83,630.79c-0.922,1.258-2.277,1.832-3.027,1.282
		s-0.611-2.016,0.311-3.273s2.277-1.833,3.029-1.283C325.893,628.065,325.752,629.531,324.83,630.79z M324.895,628.2
		c0.055-0.122-0.002-0.266-0.123-0.318c-0.123-0.054-0.266,0.002-0.32,0.125c-0.053,0.122,0.002,0.265,0.125,0.318
		S324.842,628.322,324.895,628.2z"/>
</g>
<g>
	<rect x="318.072" y="599.563" fill="none" width="13.037" height="17.964"/>
	<circle fill="#FFFFFF" stroke="#000000" stroke-width="0.33" cx="330.373" cy="600.298" r="0.631"/>
	<circle fill="#FFFFFF" stroke="#000000" stroke-width="0.33" cx="329.545" cy="601.251" r="0.631"/>
	<circle fill="#FFFFFF" stroke="#000000" stroke-width="0.33" cx="328.718" cy="602.204" r="0.632"/>
	<circle fill="#FFFFFF" stroke="#000000" stroke-width="0.33" cx="327.889" cy="603.157" r="0.631"/>
	<circle fill="#FFFFFF" stroke="#000000" stroke-width="0.33" cx="327.061" cy="604.11" r="0.631"/>
	<circle fill="#FFFFFF" stroke="#000000" stroke-width="0.33" cx="326.232" cy="605.063" r="0.631"/>
	<circle fill="#FFFFFF" stroke="#000000" stroke-width="0.33" cx="325.404" cy="606.017" r="0.631"/>
	<circle fill="#FFFFFF" stroke="#000000" stroke-width="0.33" cx="324.576" cy="606.97" r="0.631"/>
	<path fill="#FFFFFF" stroke="#000000" stroke-width="0.33" d="M320.043,617.031c-5.621-2.46,3.145-10.25,4.271-9.758
		C325.439,607.767,326.156,619.708,320.043,617.031z M324.141,607.789c-0.676-0.297-5.943,4.385-2.566,5.863
		C325.248,615.26,324.816,608.085,324.141,607.789z"/>
	<path fill="#FFFFFF" stroke="#000000" stroke-width="0.33" d="M324.168,610.647c-0.922,1.258-2.277,1.832-3.027,1.282
		c-0.75-0.549-0.611-2.015,0.313-3.273c0.922-1.258,2.275-1.833,3.027-1.282C325.23,607.923,325.09,609.389,324.168,610.647z
		 M324.232,608.058c0.053-0.122-0.002-0.265-0.125-0.318c-0.121-0.054-0.264,0.003-0.318,0.125
		c-0.053,0.122,0.002,0.265,0.125,0.318S324.18,608.181,324.232,608.058z"/>
</g>
<g>
	<rect x="317.443" y="579.417" fill="none" width="13.037" height="17.965"/>
	<circle fill="#FFFFFF" stroke="#000000" stroke-width="0.33" cx="329.745" cy="580.152" r="0.631"/>
	<circle fill="#FFFFFF" stroke="#000000" stroke-width="0.33" cx="328.918" cy="581.106" r="0.632"/>
	<circle fill="#FFFFFF" stroke="#000000" stroke-width="0.33" cx="328.09" cy="582.059" r="0.631"/>
	<circle fill="#FFFFFF" stroke="#000000" stroke-width="0.33" cx="327.262" cy="583.012" r="0.631"/>
	<circle fill="#FFFFFF" stroke="#000000" stroke-width="0.33" cx="326.434" cy="583.965" r="0.631"/>
	<circle fill="#FFFFFF" stroke="#000000" stroke-width="0.33" cx="325.605" cy="584.918" r="0.631"/>
	<circle fill="#FFFFFF" stroke="#000000" stroke-width="0.33" cx="324.777" cy="585.872" r="0.631"/>
	<circle fill="#FFFFFF" stroke="#000000" stroke-width="0.33" cx="323.949" cy="586.825" r="0.631"/>
	<path fill="#FFFFFF" stroke="#000000" stroke-width="0.33" d="M319.414,596.887c-5.619-2.461,3.146-10.251,4.271-9.758
		S325.527,599.563,319.414,596.887z M323.512,587.645c-0.676-0.297-5.943,4.384-2.566,5.862
		C324.619,595.115,324.188,587.94,323.512,587.645z"/>
	<path fill="#FFFFFF" stroke="#000000" stroke-width="0.33" d="M323.541,590.502c-0.924,1.259-2.279,1.832-3.029,1.283
		c-0.75-0.55-0.609-2.016,0.313-3.273c0.922-1.259,2.277-1.833,3.027-1.283S324.463,589.244,323.541,590.502z M323.605,587.913
		c0.053-0.123-0.004-0.266-0.127-0.318c-0.121-0.054-0.264,0.002-0.318,0.124c-0.053,0.122,0.004,0.265,0.125,0.318
		C323.408,588.092,323.551,588.035,323.605,587.913z"/>
</g>
<g>
	<rect x="316.863" y="559.282" fill="none" width="13.037" height="17.966"/>
	<circle fill="#FFFFFF" stroke="#000000" stroke-width="0.33" cx="329.164" cy="560.019" r="0.631"/>
	<circle fill="#FFFFFF" stroke="#000000" stroke-width="0.33" cx="328.336" cy="560.972" r="0.631"/>
	<circle fill="#FFFFFF" stroke="#000000" stroke-width="0.33" cx="327.508" cy="561.925" r="0.631"/>
	<circle fill="#FFFFFF" stroke="#000000" stroke-width="0.33" cx="326.68" cy="562.878" r="0.631"/>
	<circle fill="#FFFFFF" stroke="#000000" stroke-width="0.33" cx="325.852" cy="563.831" r="0.631"/>
	<circle fill="#FFFFFF" stroke="#000000" stroke-width="0.33" cx="325.023" cy="564.784" r="0.631"/>
	<circle fill="#FFFFFF" stroke="#000000" stroke-width="0.33" cx="324.195" cy="565.737" r="0.631"/>
	<circle fill="#FFFFFF" stroke="#000000" stroke-width="0.33" cx="323.367" cy="566.69" r="0.631"/>
	<path fill="#FFFFFF" stroke="#000000" stroke-width="0.33" d="M318.832,576.752c-5.619-2.46,3.146-10.25,4.273-9.758
		C324.23,567.487,324.947,579.429,318.832,576.752z M322.93,567.51c-0.676-0.297-5.941,4.385-2.566,5.862
		C324.037,574.98,323.607,567.806,322.93,567.51z"/>
	<path fill="#FFFFFF" stroke="#000000" stroke-width="0.33" d="M322.959,570.368c-0.922,1.258-2.277,1.832-3.029,1.282
		c-0.75-0.549-0.609-2.015,0.313-3.273c0.922-1.258,2.277-1.833,3.029-1.283C324.02,567.645,323.881,569.109,322.959,570.368z
		 M323.023,567.778c0.053-0.122-0.002-0.265-0.125-0.318s-0.266,0.002-0.318,0.125c-0.053,0.122,0.002,0.265,0.125,0.318
		C322.826,567.956,322.969,567.9,323.023,567.778z"/>
</g>
<g>
	<rect x="316.324" y="539.132" fill="none" width="13.037" height="17.966"/>
	<circle fill="#FFFFFF" stroke="#000000" stroke-width="0.33" cx="328.626" cy="539.868" r="0.632"/>
	<path fill="#FFFFFF" stroke="#000000" stroke-width="0.33" d="M328.273,541.235c-0.229,0.263-0.627,0.291-0.889,0.063
		c-0.264-0.229-0.291-0.627-0.063-0.891s0.627-0.291,0.889-0.063C328.477,540.573,328.502,540.972,328.273,541.235z"/>
	<circle fill="#FFFFFF" stroke="#000000" stroke-width="0.33" cx="326.97" cy="541.774" r="0.632"/>
	<circle fill="#FFFFFF" stroke="#000000" stroke-width="0.33" cx="326.143" cy="542.728" r="0.631"/>
	<circle fill="#FFFFFF" stroke="#000000" stroke-width="0.33" cx="325.313" cy="543.68" r="0.632"/>
	<circle fill="#FFFFFF" stroke="#000000" stroke-width="0.33" cx="324.485" cy="544.634" r="0.632"/>
	<circle fill="#FFFFFF" stroke="#000000" stroke-width="0.33" cx="323.657" cy="545.587" r="0.631"/>
	<circle fill="#FFFFFF" stroke="#000000" stroke-width="0.33" cx="322.829" cy="546.541" r="0.632"/>
	<path fill="#FFFFFF" stroke="#000000" stroke-width="0.33" d="M318.295,556.603c-5.621-2.461,3.146-10.251,4.271-9.759
		C323.691,547.337,324.408,559.278,318.295,556.603z M322.393,547.359c-0.676-0.296-5.943,4.384-2.566,5.862
		C323.5,554.83,323.068,547.655,322.393,547.359z"/>
	<path fill="#FFFFFF" stroke="#000000" stroke-width="0.33" d="M322.42,550.218c-0.922,1.258-2.277,1.832-3.027,1.283
		c-0.75-0.551-0.611-2.017,0.311-3.274s2.277-1.832,3.029-1.283C323.482,547.493,323.342,548.959,322.42,550.218z M322.484,547.628
		c0.055-0.122-0.002-0.265-0.123-0.318c-0.123-0.054-0.266,0.003-0.318,0.125c-0.055,0.122,0.002,0.265,0.123,0.318
		C322.289,547.807,322.432,547.751,322.484,547.628z"/>
</g>
<g>
	<rect x="315.826" y="518.974" fill="none" width="13.037" height="17.965"/>
	<circle fill="#FFFFFF" stroke="#000000" stroke-width="0.33" cx="328.127" cy="519.709" r="0.632"/>
	<circle fill="#FFFFFF" stroke="#000000" stroke-width="0.33" cx="327.299" cy="520.663" r="0.631"/>
	<circle fill="#FFFFFF" stroke="#000000" stroke-width="0.33" cx="326.471" cy="521.616" r="0.631"/>
	<circle fill="#FFFFFF" stroke="#000000" stroke-width="0.33" cx="325.643" cy="522.569" r="0.631"/>
	<circle fill="#FFFFFF" stroke="#000000" stroke-width="0.33" cx="324.814" cy="523.522" r="0.631"/>
	<circle fill="#FFFFFF" stroke="#000000" stroke-width="0.33" cx="323.986" cy="524.475" r="0.632"/>
	<circle fill="#FFFFFF" stroke="#000000" stroke-width="0.33" cx="323.158" cy="525.429" r="0.631"/>
	<circle fill="#FFFFFF" stroke="#000000" stroke-width="0.33" cx="322.33" cy="526.382" r="0.631"/>
	<path fill="#FFFFFF" stroke="#000000" stroke-width="0.33" d="M317.795,536.443c-5.619-2.461,3.146-10.25,4.271-9.758
		C323.193,527.179,323.91,539.12,317.795,536.443z M321.893,527.201c-0.676-0.297-5.941,4.384-2.566,5.862
		C323,534.672,322.57,527.497,321.893,527.201z"/>
	<path fill="#FFFFFF" stroke="#000000" stroke-width="0.33" d="M321.922,530.059c-0.924,1.259-2.277,1.832-3.029,1.283
		c-0.75-0.55-0.609-2.016,0.313-3.273c0.922-1.259,2.277-1.833,3.027-1.283S322.844,528.801,321.922,530.059z M321.986,527.47
		c0.053-0.122-0.004-0.265-0.125-0.318c-0.123-0.054-0.266,0.003-0.318,0.125s0.002,0.264,0.125,0.318
		C321.789,527.648,321.932,527.593,321.986,527.47z"/>
</g>
<g>
	<rect x="315.398" y="498.836" fill="none" width="13.037" height="17.964"/>
	<circle fill="#FFFFFF" stroke="#000000" stroke-width="0.33" cx="327.699" cy="499.571" r="0.631"/>
	<circle fill="#FFFFFF" stroke="#000000" stroke-width="0.33" cx="326.871" cy="500.524" r="0.631"/>
	<circle fill="#FFFFFF" stroke="#000000" stroke-width="0.33" cx="326.043" cy="501.478" r="0.631"/>
	<circle fill="#FFFFFF" stroke="#000000" stroke-width="0.33" cx="325.215" cy="502.431" r="0.631"/>
	<circle fill="#FFFFFF" stroke="#000000" stroke-width="0.33" cx="324.387" cy="503.384" r="0.631"/>
	<circle fill="#FFFFFF" stroke="#000000" stroke-width="0.33" cx="323.559" cy="504.337" r="0.631"/>
	<circle fill="#FFFFFF" stroke="#000000" stroke-width="0.33" cx="322.73" cy="505.291" r="0.631"/>
	<circle fill="#FFFFFF" stroke="#000000" stroke-width="0.33" cx="321.902" cy="506.243" r="0.631"/>
	<path fill="#FFFFFF" stroke="#000000" stroke-width="0.33" d="M317.367,516.305c-5.619-2.46,3.146-10.25,4.271-9.758
		C322.764,507.04,323.48,518.981,317.367,516.305z M321.465,507.063c-0.676-0.296-5.941,4.385-2.566,5.863
		C322.572,514.533,322.143,507.358,321.465,507.063z"/>
	<path fill="#FFFFFF" stroke="#000000" stroke-width="0.33" d="M321.494,509.921c-0.924,1.258-2.277,1.832-3.027,1.282
		c-0.752-0.549-0.611-2.015,0.311-3.273c0.922-1.258,2.277-1.833,3.027-1.282C322.555,507.197,322.416,508.662,321.494,509.921z
		 M321.557,507.331c0.055-0.122-0.002-0.265-0.123-0.318c-0.123-0.053-0.266,0.003-0.318,0.125
		c-0.055,0.122,0.002,0.265,0.125,0.318C321.361,507.51,321.504,507.454,321.557,507.331z"/>
</g>
<g>
	<rect x="314.979" y="478.68" fill="none" width="13.037" height="17.965"/>
	<circle fill="#FFFFFF" stroke="#000000" stroke-width="0.33" cx="327.279" cy="479.416" r="0.631"/>
	<circle fill="#FFFFFF" stroke="#000000" stroke-width="0.33" cx="326.451" cy="480.369" r="0.631"/>
	<circle fill="#FFFFFF" stroke="#000000" stroke-width="0.33" cx="325.623" cy="481.322" r="0.631"/>
	<circle fill="#FFFFFF" stroke="#000000" stroke-width="0.33" cx="324.796" cy="482.275" r="0.632"/>
	<path fill="#FFFFFF" stroke="#000000" stroke-width="0.33" d="M324.443,483.643c-0.229,0.264-0.627,0.291-0.889,0.063
		c-0.264-0.229-0.293-0.628-0.064-0.891c0.23-0.264,0.629-0.291,0.891-0.063C324.645,482.98,324.672,483.38,324.443,483.643z"/>
	<circle fill="#FFFFFF" stroke="#000000" stroke-width="0.33" cx="323.14" cy="484.182" r="0.632"/>
	<circle fill="#FFFFFF" stroke="#000000" stroke-width="0.33" cx="322.312" cy="485.135" r="0.631"/>
	<circle fill="#FFFFFF" stroke="#000000" stroke-width="0.33" cx="321.483" cy="486.088" r="0.632"/>
	<path fill="#FFFFFF" stroke="#000000" stroke-width="0.33" d="M316.949,496.149c-5.621-2.46,3.145-10.25,4.271-9.757
		C322.346,486.886,323.063,498.826,316.949,496.149z M321.047,486.907c-0.676-0.296-5.943,4.385-2.566,5.862
		C322.154,494.378,321.723,487.203,321.047,486.907z"/>
	<path fill="#FFFFFF" stroke="#000000" stroke-width="0.33" d="M321.074,489.766c-0.922,1.258-2.277,1.832-3.027,1.282
		c-0.75-0.549-0.611-2.015,0.311-3.273s2.277-1.833,3.029-1.283C322.137,487.041,321.996,488.507,321.074,489.766z M321.139,487.177
		c0.055-0.123-0.002-0.266-0.125-0.318c-0.121-0.055-0.264,0.002-0.318,0.124c-0.053,0.122,0.002,0.265,0.125,0.318
		S321.086,487.299,321.139,487.177z"/>
</g>
<g>
	<rect x="314.693" y="458.521" fill="none" width="13.037" height="17.965"/>
	<circle fill="#FFFFFF" stroke="#000000" stroke-width="0.33" cx="326.995" cy="459.257" r="0.632"/>
	<path fill="#FFFFFF" stroke="#000000" stroke-width="0.33" d="M326.643,460.625c-0.229,0.263-0.627,0.291-0.889,0.063
		c-0.264-0.229-0.291-0.627-0.064-0.891c0.23-0.264,0.629-0.292,0.891-0.063C326.844,459.963,326.873,460.361,326.643,460.625z"/>
	<circle fill="#FFFFFF" stroke="#000000" stroke-width="0.33" cx="325.339" cy="461.164" r="0.631"/>
	<circle fill="#FFFFFF" stroke="#000000" stroke-width="0.33" cx="324.511" cy="462.117" r="0.632"/>
	<circle fill="#FFFFFF" stroke="#000000" stroke-width="0.33" cx="323.683" cy="463.07" r="0.631"/>
	<circle fill="#FFFFFF" stroke="#000000" stroke-width="0.33" cx="322.854" cy="464.023" r="0.632"/>
	<circle fill="#FFFFFF" stroke="#000000" stroke-width="0.33" cx="322.027" cy="464.977" r="0.631"/>
	<circle fill="#FFFFFF" stroke="#000000" stroke-width="0.33" cx="321.199" cy="465.93" r="0.631"/>
	<path fill="#FFFFFF" stroke="#000000" stroke-width="0.33" d="M316.664,475.991c-5.621-2.46,3.146-10.251,4.271-9.758
		S322.777,478.668,316.664,475.991z M320.762,466.749c-0.676-0.297-5.943,4.384-2.566,5.862
		C321.869,474.22,321.438,467.045,320.762,466.749z"/>
	<path fill="#FFFFFF" stroke="#000000" stroke-width="0.33" d="M320.789,469.606c-0.922,1.259-2.277,1.833-3.027,1.283
		s-0.611-2.016,0.313-3.273c0.922-1.259,2.275-1.833,3.027-1.283C321.852,466.883,321.711,468.349,320.789,469.606z
		 M320.854,467.019c0.055-0.123-0.002-0.266-0.123-0.319c-0.123-0.054-0.266,0.002-0.32,0.124c-0.053,0.123,0.004,0.266,0.125,0.318
		C320.658,467.196,320.801,467.141,320.854,467.019z"/>
</g>
<g>
	<rect x="314.41" y="438.382" fill="none" width="13.037" height="17.964"/>
	<circle fill="#FFFFFF" stroke="#000000" stroke-width="0.33" cx="326.711" cy="439.117" r="0.631"/>
	<circle fill="#FFFFFF" stroke="#000000" stroke-width="0.33" cx="325.883" cy="440.07" r="0.631"/>
	<circle fill="#FFFFFF" stroke="#000000" stroke-width="0.33" cx="325.055" cy="441.023" r="0.631"/>
	<circle fill="#FFFFFF" stroke="#000000" stroke-width="0.33" cx="324.227" cy="441.977" r="0.631"/>
	<circle fill="#FFFFFF" stroke="#000000" stroke-width="0.33" cx="323.398" cy="442.93" r="0.631"/>
	<circle fill="#FFFFFF" stroke="#000000" stroke-width="0.33" cx="322.57" cy="443.883" r="0.631"/>
	<circle fill="#FFFFFF" stroke="#000000" stroke-width="0.33" cx="321.742" cy="444.836" r="0.631"/>
	<circle fill="#FFFFFF" stroke="#000000" stroke-width="0.33" cx="320.914" cy="445.789" r="0.631"/>
	<path fill="#FFFFFF" stroke="#000000" stroke-width="0.33" d="M316.379,455.851c-5.619-2.46,3.146-10.25,4.271-9.758
		C321.775,446.586,322.492,458.527,316.379,455.851z M320.477,446.608c-0.676-0.297-5.943,4.385-2.566,5.862
		C321.584,454.079,321.154,446.904,320.477,446.608z"/>
	<path fill="#FFFFFF" stroke="#000000" stroke-width="0.33" d="M320.504,449.467c-0.922,1.258-2.277,1.832-3.027,1.282
		c-0.75-0.549-0.611-2.015,0.313-3.273c0.922-1.258,2.277-1.833,3.027-1.282C321.566,446.742,321.428,448.208,320.504,449.467z
		 M320.568,446.877c0.055-0.122-0.002-0.265-0.123-0.318c-0.123-0.054-0.266,0.002-0.318,0.125
		c-0.055,0.122,0.002,0.265,0.123,0.318C320.373,447.056,320.516,447,320.568,446.877z"/>
</g>
<g>
	<rect x="314.311" y="418.188" fill="none" width="13.037" height="17.965"/>
	<circle fill="#FFFFFF" stroke="#000000" stroke-width="0.33" cx="326.611" cy="418.925" r="0.631"/>
	<circle fill="#FFFFFF" stroke="#000000" stroke-width="0.33" cx="325.783" cy="419.878" r="0.631"/>
	<circle fill="#FFFFFF" stroke="#000000" stroke-width="0.33" cx="324.955" cy="420.831" r="0.631"/>
	<circle fill="#FFFFFF" stroke="#000000" stroke-width="0.33" cx="324.127" cy="421.784" r="0.631"/>
	<circle fill="#FFFFFF" stroke="#000000" stroke-width="0.33" cx="323.299" cy="422.737" r="0.631"/>
	<circle fill="#FFFFFF" stroke="#000000" stroke-width="0.33" cx="322.471" cy="423.69" r="0.631"/>
	<circle fill="#FFFFFF" stroke="#000000" stroke-width="0.33" cx="321.643" cy="424.644" r="0.631"/>
	<circle fill="#FFFFFF" stroke="#000000" stroke-width="0.33" cx="320.814" cy="425.597" r="0.631"/>
	<path fill="#FFFFFF" stroke="#000000" stroke-width="0.33" d="M316.279,435.658c-5.619-2.46,3.146-10.251,4.273-9.758
		C321.678,426.394,322.395,438.335,316.279,435.658z M320.377,426.416c-0.676-0.297-5.941,4.385-2.564,5.862
		C321.484,433.887,321.055,426.712,320.377,426.416z"/>
	<path fill="#FFFFFF" stroke="#000000" stroke-width="0.33" d="M320.406,429.273c-0.922,1.259-2.277,1.833-3.027,1.283
		c-0.752-0.55-0.611-2.016,0.311-3.273c0.922-1.259,2.277-1.833,3.029-1.283C321.467,426.55,321.328,428.016,320.406,429.273z
		 M320.471,426.686c0.053-0.123-0.002-0.266-0.125-0.318c-0.123-0.055-0.264,0.001-0.318,0.123
		c-0.053,0.123,0.002,0.266,0.125,0.318C320.273,426.863,320.416,426.808,320.471,426.686z"/>
</g>
<g>
	<rect x="314.232" y="398.046" fill="none" width="13.037" height="17.965"/>
	<circle fill="#FFFFFF" stroke="#000000" stroke-width="0.33" cx="326.534" cy="398.782" r="0.632"/>
	<path fill="#FFFFFF" stroke="#000000" stroke-width="0.33" d="M326.182,400.149c-0.229,0.264-0.627,0.291-0.889,0.063
		c-0.264-0.229-0.291-0.627-0.064-0.891c0.23-0.264,0.629-0.291,0.891-0.063C326.383,399.487,326.412,399.886,326.182,400.149z"/>
	<path fill="#FFFFFF" stroke="#000000" stroke-width="0.33" d="M325.354,401.103c-0.229,0.263-0.627,0.291-0.889,0.063
		c-0.264-0.229-0.293-0.628-0.064-0.891c0.23-0.263,0.629-0.291,0.893-0.063C325.555,400.44,325.584,400.84,325.354,401.103z"/>
	<circle fill="#FFFFFF" stroke="#000000" stroke-width="0.33" cx="324.05" cy="401.642" r="0.632"/>
	<circle fill="#FFFFFF" stroke="#000000" stroke-width="0.33" cx="323.222" cy="402.595" r="0.631"/>
	<circle fill="#FFFFFF" stroke="#000000" stroke-width="0.33" cx="322.394" cy="403.548" r="0.632"/>
	<circle fill="#FFFFFF" stroke="#000000" stroke-width="0.33" cx="321.566" cy="404.501" r="0.631"/>
	<circle fill="#FFFFFF" stroke="#000000" stroke-width="0.33" cx="320.738" cy="405.454" r="0.631"/>
	<path fill="#FFFFFF" stroke="#000000" stroke-width="0.33" d="M316.203,415.516c-5.621-2.46,3.146-10.25,4.271-9.758
		C321.6,406.251,322.316,418.192,316.203,415.516z M320.301,406.273c-0.676-0.296-5.943,4.385-2.566,5.863
		C321.408,413.744,320.977,406.569,320.301,406.273z"/>
	<path fill="#FFFFFF" stroke="#000000" stroke-width="0.33" d="M320.328,409.132c-0.922,1.258-2.277,1.832-3.027,1.282
		c-0.75-0.549-0.611-2.015,0.313-3.273c0.922-1.258,2.275-1.833,3.027-1.283C321.391,406.408,321.25,407.873,320.328,409.132z
		 M320.393,406.543c0.055-0.123-0.002-0.266-0.123-0.319c-0.123-0.054-0.266,0.003-0.32,0.125c-0.053,0.122,0.004,0.265,0.125,0.318
		C320.197,406.721,320.34,406.665,320.393,406.543z"/>
</g>
<g>
	<rect x="314.438" y="377.825" fill="none" width="13.037" height="17.965"/>
	<circle fill="#FFFFFF" stroke="#000000" stroke-width="0.33" cx="326.738" cy="378.562" r="0.631"/>
	<circle fill="#FFFFFF" stroke="#000000" stroke-width="0.33" cx="325.91" cy="379.515" r="0.631"/>
	<path fill="#FFFFFF" stroke="#000000" stroke-width="0.33" d="M325.559,380.882c-0.229,0.263-0.627,0.291-0.889,0.063
		c-0.264-0.229-0.293-0.628-0.064-0.891c0.23-0.264,0.629-0.291,0.891-0.063C325.76,380.22,325.787,380.618,325.559,380.882z"/>
	<circle fill="#FFFFFF" stroke="#000000" stroke-width="0.33" cx="324.254" cy="381.421" r="0.631"/>
	<circle fill="#FFFFFF" stroke="#000000" stroke-width="0.33" cx="323.427" cy="382.374" r="0.631"/>
	<circle fill="#FFFFFF" stroke="#000000" stroke-width="0.33" cx="322.599" cy="383.327" r="0.632"/>
	<circle fill="#FFFFFF" stroke="#000000" stroke-width="0.33" cx="321.77" cy="384.28" r="0.631"/>
	<circle fill="#FFFFFF" stroke="#000000" stroke-width="0.33" cx="320.942" cy="385.233" r="0.631"/>
	<path fill="#FFFFFF" stroke="#000000" stroke-width="0.33" d="M316.408,395.295c-5.621-2.46,3.146-10.25,4.271-9.758
		C321.805,386.03,322.521,397.972,316.408,395.295z M320.506,386.053c-0.676-0.297-5.943,4.385-2.566,5.862
		C321.613,393.523,321.182,386.349,320.506,386.053z"/>
	<path fill="#FFFFFF" stroke="#000000" stroke-width="0.33" d="M320.533,388.911c-0.922,1.258-2.277,1.832-3.027,1.282
		s-0.611-2.016,0.311-3.273s2.277-1.833,3.029-1.283C321.594,386.187,321.455,387.652,320.533,388.911z M320.598,386.321
		c0.055-0.122-0.002-0.265-0.125-0.318s-0.264,0.002-0.318,0.125c-0.053,0.122,0.004,0.265,0.125,0.318
		C320.402,386.5,320.543,386.443,320.598,386.321z"/>
</g>
<g>
	<rect x="314.732" y="357.541" fill="none" width="13.037" height="17.965"/>
	<circle fill="#FFFFFF" stroke="#000000" stroke-width="0.33" cx="327.033" cy="358.277" r="0.631"/>
	<circle fill="#FFFFFF" stroke="#000000" stroke-width="0.33" cx="326.205" cy="359.23" r="0.631"/>
	<circle fill="#FFFFFF" stroke="#000000" stroke-width="0.33" cx="325.377" cy="360.184" r="0.631"/>
	<circle fill="#FFFFFF" stroke="#000000" stroke-width="0.33" cx="324.549" cy="361.137" r="0.631"/>
	<circle fill="#FFFFFF" stroke="#000000" stroke-width="0.33" cx="323.721" cy="362.09" r="0.631"/>
	<circle fill="#FFFFFF" stroke="#000000" stroke-width="0.33" cx="322.893" cy="363.043" r="0.631"/>
	<circle fill="#FFFFFF" stroke="#000000" stroke-width="0.33" cx="322.064" cy="363.996" r="0.631"/>
	<circle fill="#FFFFFF" stroke="#000000" stroke-width="0.33" cx="321.236" cy="364.949" r="0.631"/>
	<path fill="#FFFFFF" stroke="#000000" stroke-width="0.33" d="M316.701,375.011c-5.619-2.46,3.148-10.25,4.273-9.758
		C322.1,365.746,322.816,377.688,316.701,375.011z M320.801,365.769c-0.678-0.297-5.943,4.384-2.566,5.862
		C321.906,373.239,321.477,366.064,320.801,365.769z"/>
	<path fill="#FFFFFF" stroke="#000000" stroke-width="0.33" d="M320.828,368.627c-0.922,1.258-2.277,1.832-3.027,1.282
		s-0.611-2.016,0.311-3.273c0.922-1.259,2.277-1.833,3.029-1.283C321.889,365.902,321.75,367.368,320.828,368.627z M320.893,366.037
		c0.055-0.122-0.002-0.265-0.125-0.318s-0.264,0.002-0.318,0.125c-0.053,0.122,0.004,0.265,0.125,0.318
		C320.697,366.216,320.838,366.16,320.893,366.037z"/>
</g>
<g>
	<rect x="315.576" y="337.416" fill="none" width="13.037" height="17.965"/>
	<circle fill="#FFFFFF" stroke="#000000" stroke-width="0.33" cx="327.877" cy="338.152" r="0.631"/>
	<circle fill="#FFFFFF" stroke="#000000" stroke-width="0.33" cx="327.049" cy="339.105" r="0.631"/>
	<circle fill="#FFFFFF" stroke="#000000" stroke-width="0.33" cx="326.221" cy="340.059" r="0.631"/>
	<circle fill="#FFFFFF" stroke="#000000" stroke-width="0.33" cx="325.393" cy="341.012" r="0.631"/>
	<circle fill="#FFFFFF" stroke="#000000" stroke-width="0.33" cx="324.564" cy="341.965" r="0.631"/>
	<circle fill="#FFFFFF" stroke="#000000" stroke-width="0.33" cx="323.736" cy="342.918" r="0.631"/>
	<circle fill="#FFFFFF" stroke="#000000" stroke-width="0.33" cx="322.908" cy="343.871" r="0.631"/>
	<circle fill="#FFFFFF" stroke="#000000" stroke-width="0.33" cx="322.08" cy="344.824" r="0.631"/>
	<path fill="#FFFFFF" stroke="#000000" stroke-width="0.33" d="M317.545,354.886c-5.619-2.46,3.146-10.25,4.271-9.758
		C322.941,345.621,323.658,357.563,317.545,354.886z M321.643,345.644c-0.676-0.297-5.943,4.384-2.566,5.862
		C322.75,353.114,322.32,345.939,321.643,345.644z"/>
	<path fill="#FFFFFF" stroke="#000000" stroke-width="0.33" d="M321.67,348.502c-0.922,1.258-2.277,1.832-3.027,1.282
		s-0.611-2.016,0.313-3.273c0.922-1.258,2.277-1.833,3.027-1.283S322.594,347.243,321.67,348.502z M321.734,345.912
		c0.055-0.122-0.002-0.265-0.123-0.318c-0.123-0.054-0.266,0.002-0.318,0.125c-0.055,0.122,0.002,0.265,0.123,0.318
		C321.539,346.091,321.682,346.035,321.734,345.912z"/>
</g>
<g>
	<rect x="316.967" y="317.123" fill="none" width="13.037" height="17.965"/>
	<circle fill="#FFFFFF" stroke="#000000" stroke-width="0.33" cx="329.268" cy="317.858" r="0.631"/>
	<circle fill="#FFFFFF" stroke="#000000" stroke-width="0.33" cx="328.439" cy="318.812" r="0.631"/>
	<circle fill="#FFFFFF" stroke="#000000" stroke-width="0.33" cx="327.611" cy="319.765" r="0.631"/>
	<circle fill="#FFFFFF" stroke="#000000" stroke-width="0.33" cx="326.783" cy="320.718" r="0.631"/>
	<circle fill="#FFFFFF" stroke="#000000" stroke-width="0.33" cx="325.955" cy="321.671" r="0.631"/>
	<circle fill="#FFFFFF" stroke="#000000" stroke-width="0.33" cx="325.127" cy="322.624" r="0.631"/>
	<circle fill="#FFFFFF" stroke="#000000" stroke-width="0.33" cx="324.299" cy="323.577" r="0.631"/>
	<circle fill="#FFFFFF" stroke="#000000" stroke-width="0.33" cx="323.471" cy="324.53" r="0.631"/>
	<path fill="#FFFFFF" stroke="#000000" stroke-width="0.33" d="M318.936,334.593c-5.619-2.461,3.146-10.251,4.271-9.759
		C324.334,325.328,325.049,337.269,318.936,334.593z M323.033,325.35c-0.676-0.296-5.941,4.385-2.566,5.863
		C324.141,332.82,323.709,325.646,323.033,325.35z"/>
	<path fill="#FFFFFF" stroke="#000000" stroke-width="0.33" d="M323.063,328.208c-0.922,1.258-2.277,1.832-3.029,1.283
		c-0.75-0.55-0.609-2.016,0.313-3.274c0.922-1.258,2.277-1.832,3.027-1.282S323.984,326.949,323.063,328.208z M323.127,325.619
		c0.053-0.123-0.004-0.266-0.125-0.318c-0.123-0.055-0.266,0.002-0.318,0.124c-0.055,0.122,0.002,0.265,0.125,0.318
		C322.93,325.797,323.072,325.741,323.127,325.619z"/>
</g>
<g>
	<rect x="319.328" y="296.725" fill="none" width="13.037" height="17.965"/>
	<circle fill="#FFFFFF" stroke="#000000" stroke-width="0.33" cx="331.63" cy="297.461" r="0.631"/>
	<circle fill="#FFFFFF" stroke="#000000" stroke-width="0.33" cx="330.801" cy="298.414" r="0.631"/>
	<circle fill="#FFFFFF" stroke="#000000" stroke-width="0.33" cx="329.974" cy="299.367" r="0.632"/>
	<circle fill="#FFFFFF" stroke="#000000" stroke-width="0.33" cx="329.146" cy="300.32" r="0.631"/>
	<path fill="#FFFFFF" stroke="#000000" stroke-width="0.33" d="M328.795,301.688c-0.229,0.263-0.629,0.291-0.893,0.063
		c-0.262-0.229-0.291-0.628-0.061-0.891c0.227-0.264,0.627-0.291,0.891-0.063C328.994,301.025,329.023,301.424,328.795,301.688z"/>
	<circle fill="#FFFFFF" stroke="#000000" stroke-width="0.33" cx="327.49" cy="302.227" r="0.631"/>
	<circle fill="#FFFFFF" stroke="#000000" stroke-width="0.33" cx="326.66" cy="303.18" r="0.631"/>
	<circle fill="#FFFFFF" stroke="#000000" stroke-width="0.33" cx="325.834" cy="304.133" r="0.631"/>
	<path fill="#FFFFFF" stroke="#000000" stroke-width="0.33" d="M321.299,314.194c-5.621-2.46,3.146-10.25,4.271-9.758
		C326.695,304.93,327.412,316.871,321.299,314.194z M325.396,304.952c-0.676-0.297-5.943,4.385-2.566,5.862
		C326.504,312.423,326.072,305.248,325.396,304.952z"/>
	<path fill="#FFFFFF" stroke="#000000" stroke-width="0.33" d="M325.424,307.811c-0.922,1.258-2.277,1.832-3.027,1.282
		s-0.611-2.016,0.313-3.273c0.922-1.258,2.277-1.833,3.027-1.283S326.346,306.552,325.424,307.811z M325.488,305.221
		c0.055-0.122-0.002-0.265-0.125-0.318c-0.121-0.054-0.264,0.002-0.318,0.125c-0.053,0.122,0.004,0.265,0.125,0.318
		C325.293,305.399,325.436,305.344,325.488,305.221z"/>
</g>
<g>
	<rect x="324.205" y="276.686" fill="none" width="13.037" height="17.964"/>
	<circle fill="#FFFFFF" stroke="#000000" stroke-width="0.33" cx="336.506" cy="277.422" r="0.631"/>
	<circle fill="#FFFFFF" stroke="#000000" stroke-width="0.33" cx="335.678" cy="278.375" r="0.631"/>
	<path fill="#FFFFFF" stroke="#000000" stroke-width="0.33" d="M335.326,279.742c-0.229,0.263-0.627,0.291-0.889,0.063
		c-0.264-0.229-0.293-0.627-0.064-0.891c0.23-0.264,0.629-0.291,0.891-0.063C335.527,279.08,335.555,279.479,335.326,279.742z"/>
	<circle fill="#FFFFFF" stroke="#000000" stroke-width="0.33" cx="334.022" cy="280.281" r="0.632"/>
	<circle fill="#FFFFFF" stroke="#000000" stroke-width="0.33" cx="333.194" cy="281.234" r="0.631"/>
	<circle fill="#FFFFFF" stroke="#000000" stroke-width="0.33" cx="332.366" cy="282.188" r="0.632"/>
	<circle fill="#FFFFFF" stroke="#000000" stroke-width="0.33" cx="331.539" cy="283.141" r="0.631"/>
	<circle fill="#FFFFFF" stroke="#000000" stroke-width="0.33" cx="330.71" cy="284.094" r="0.632"/>
	<path fill="#FFFFFF" stroke="#000000" stroke-width="0.33" d="M326.176,294.155c-5.621-2.46,3.146-10.25,4.271-9.758
		C331.572,284.891,332.289,296.832,326.176,294.155z M330.273,284.913c-0.676-0.296-5.943,4.385-2.566,5.862
		C331.381,292.384,330.949,285.209,330.273,284.913z"/>
	<path fill="#FFFFFF" stroke="#000000" stroke-width="0.33" d="M330.301,287.771c-0.922,1.258-2.277,1.832-3.027,1.282
		c-0.75-0.549-0.611-2.015,0.311-3.273c0.922-1.258,2.277-1.833,3.029-1.283C331.363,285.047,331.223,286.513,330.301,287.771z
		 M330.365,285.182c0.055-0.122-0.002-0.265-0.125-0.318c-0.121-0.054-0.264,0.002-0.318,0.125
		c-0.053,0.122,0.004,0.265,0.125,0.318C330.17,285.36,330.313,285.305,330.365,285.182z"/>
</g>
<g>
	<rect x="326.65" y="257.578" fill="none" width="13.037" height="17.965"/>
	<circle fill="#FFFFFF" stroke="#000000" stroke-width="0.33" cx="338.951" cy="258.314" r="0.631"/>
	<circle fill="#FFFFFF" stroke="#000000" stroke-width="0.33" cx="338.123" cy="259.267" r="0.631"/>
	<circle fill="#FFFFFF" stroke="#000000" stroke-width="0.33" cx="337.295" cy="260.22" r="0.631"/>
	<circle fill="#FFFFFF" stroke="#000000" stroke-width="0.33" cx="336.467" cy="261.173" r="0.631"/>
	<circle fill="#FFFFFF" stroke="#000000" stroke-width="0.33" cx="335.639" cy="262.126" r="0.631"/>
	<circle fill="#FFFFFF" stroke="#000000" stroke-width="0.33" cx="334.811" cy="263.08" r="0.631"/>
	<circle fill="#FFFFFF" stroke="#000000" stroke-width="0.33" cx="333.982" cy="264.033" r="0.631"/>
	<circle fill="#FFFFFF" stroke="#000000" stroke-width="0.33" cx="333.154" cy="264.986" r="0.631"/>
	<path fill="#FFFFFF" stroke="#000000" stroke-width="0.33" d="M328.619,275.048c-5.619-2.46,3.146-10.25,4.271-9.758
		C334.018,265.783,334.732,277.724,328.619,275.048z M332.717,265.805c-0.676-0.296-5.943,4.384-2.566,5.863
		C333.824,273.276,333.395,266.101,332.717,265.805z"/>
	<path fill="#FFFFFF" stroke="#000000" stroke-width="0.33" d="M332.746,268.663c-0.924,1.258-2.279,1.833-3.029,1.283
		c-0.75-0.55-0.609-2.016,0.313-3.274s2.277-1.833,3.027-1.283S333.668,267.405,332.746,268.663z M332.811,266.074
		c0.053-0.123-0.002-0.265-0.125-0.318c-0.123-0.054-0.266,0.002-0.318,0.125c-0.055,0.122,0.002,0.265,0.125,0.318
		C332.613,266.252,332.756,266.196,332.811,266.074z"/>
</g>
<g>
	<rect x="328.229" y="237.54" fill="none" width="13.037" height="17.965"/>
	<circle fill="#FFFFFF" stroke="#000000" stroke-width="0.33" cx="340.529" cy="238.276" r="0.631"/>
	<circle fill="#FFFFFF" stroke="#000000" stroke-width="0.33" cx="339.701" cy="239.229" r="0.631"/>
	<circle fill="#FFFFFF" stroke="#000000" stroke-width="0.33" cx="338.873" cy="240.182" r="0.631"/>
	<circle fill="#FFFFFF" stroke="#000000" stroke-width="0.33" cx="338.045" cy="241.135" r="0.631"/>
	<circle fill="#FFFFFF" stroke="#000000" stroke-width="0.33" cx="337.217" cy="242.088" r="0.631"/>
	<circle fill="#FFFFFF" stroke="#000000" stroke-width="0.33" cx="336.389" cy="243.042" r="0.631"/>
	<circle fill="#FFFFFF" stroke="#000000" stroke-width="0.33" cx="335.561" cy="243.995" r="0.631"/>
	<circle fill="#FFFFFF" stroke="#000000" stroke-width="0.33" cx="334.732" cy="244.948" r="0.631"/>
	<path fill="#FFFFFF" stroke="#000000" stroke-width="0.33" d="M330.197,255.01c-5.619-2.46,3.146-10.25,4.271-9.758
		C335.596,245.745,336.313,257.687,330.197,255.01z M334.297,245.767c-0.678-0.296-5.943,4.385-2.566,5.863
		C335.402,253.238,334.973,246.063,334.297,245.767z"/>
	<path fill="#FFFFFF" stroke="#000000" stroke-width="0.33" d="M334.324,248.625c-0.924,1.258-2.277,1.833-3.027,1.283
		c-0.752-0.549-0.611-2.016,0.311-3.274c0.922-1.258,2.277-1.833,3.027-1.283S335.246,247.367,334.324,248.625z M334.389,246.036
		c0.053-0.122-0.002-0.265-0.125-0.318c-0.123-0.054-0.266,0.002-0.318,0.125s0.002,0.265,0.125,0.318
		C334.191,246.214,334.334,246.159,334.389,246.036z"/>
</g>
<g>
	<rect x="329.865" y="217.455" fill="none" width="13.037" height="17.964"/>
	<circle fill="#FFFFFF" stroke="#000000" stroke-width="0.33" cx="342.166" cy="218.19" r="0.631"/>
	<circle fill="#FFFFFF" stroke="#000000" stroke-width="0.33" cx="341.338" cy="219.144" r="0.631"/>
	<circle fill="#FFFFFF" stroke="#000000" stroke-width="0.33" cx="340.51" cy="220.097" r="0.631"/>
	<circle fill="#FFFFFF" stroke="#000000" stroke-width="0.33" cx="339.682" cy="221.05" r="0.631"/>
	<circle fill="#FFFFFF" stroke="#000000" stroke-width="0.33" cx="338.854" cy="222.003" r="0.631"/>
	<circle fill="#FFFFFF" stroke="#000000" stroke-width="0.33" cx="338.025" cy="222.956" r="0.631"/>
	<circle fill="#FFFFFF" stroke="#000000" stroke-width="0.33" cx="337.197" cy="223.909" r="0.631"/>
	<circle fill="#FFFFFF" stroke="#000000" stroke-width="0.33" cx="336.369" cy="224.862" r="0.631"/>
	<path fill="#FFFFFF" stroke="#000000" stroke-width="0.33" d="M331.834,234.924c-5.619-2.46,3.146-10.25,4.271-9.758
		C337.232,225.659,337.949,237.601,331.834,234.924z M335.934,225.682c-0.678-0.296-5.943,4.384-2.566,5.863
		C337.039,233.152,336.609,225.978,335.934,225.682z"/>
	<path fill="#FFFFFF" stroke="#000000" stroke-width="0.33" d="M335.961,228.54c-0.922,1.258-2.279,1.833-3.027,1.283
		c-0.752-0.55-0.611-2.016,0.311-3.274s2.277-1.833,3.027-1.283C337.021,225.816,336.883,227.281,335.961,228.54z M336.025,225.951
		c0.053-0.123-0.002-0.265-0.125-0.318c-0.123-0.054-0.266,0.002-0.318,0.125c-0.055,0.122,0.002,0.265,0.125,0.318
		C335.828,226.129,335.971,226.073,336.025,225.951z"/>
</g>
<g>
	<rect x="483.926" y="639.843" fill="none" width="13.037" height="17.966"/>
	<circle fill="#FFFFFF" stroke="#000000" stroke-width="0.33" cx="484.662" cy="640.579" r="0.631"/>
	<circle fill="#FFFFFF" stroke="#000000" stroke-width="0.33" cx="485.49" cy="641.532" r="0.631"/>
	<circle fill="#FFFFFF" stroke="#000000" stroke-width="0.33" cx="486.318" cy="642.486" r="0.632"/>
	<circle fill="#FFFFFF" stroke="#000000" stroke-width="0.33" cx="487.146" cy="643.438" r="0.631"/>
	<circle fill="#FFFFFF" stroke="#000000" stroke-width="0.33" cx="487.975" cy="644.392" r="0.631"/>
	<circle fill="#FFFFFF" stroke="#000000" stroke-width="0.33" cx="488.803" cy="645.345" r="0.631"/>
	<circle fill="#FFFFFF" stroke="#000000" stroke-width="0.33" cx="489.631" cy="646.298" r="0.631"/>
	<circle fill="#FFFFFF" stroke="#000000" stroke-width="0.33" cx="490.459" cy="647.252" r="0.631"/>
	<path fill="#FFFFFF" stroke="#000000" stroke-width="0.33" d="M490.723,647.556c1.125-0.493,9.891,7.297,4.271,9.758
		C488.879,659.99,489.596,648.049,490.723,647.556z M493.461,653.934c3.377-1.479-1.889-6.159-2.564-5.862
		C490.219,648.366,489.789,655.541,493.461,653.934z"/>
	<path fill="#FFFFFF" stroke="#000000" stroke-width="0.33" d="M490.557,647.654c0.75-0.549,2.105,0.025,3.027,1.283
		c0.922,1.259,1.063,2.725,0.311,3.274c-0.75,0.549-2.104-0.025-3.027-1.283C489.945,649.67,489.807,648.205,490.557,647.654z
		 M491.121,648.464c0.123-0.054,0.178-0.196,0.125-0.318s-0.195-0.179-0.318-0.124c-0.121,0.053-0.178,0.195-0.125,0.318
		C490.857,648.462,491,648.518,491.121,648.464z"/>
</g>
<g>
	<rect x="484.627" y="619.704" fill="none" width="13.037" height="17.965"/>
	<circle fill="#FFFFFF" stroke="#000000" stroke-width="0.33" cx="485.362" cy="620.44" r="0.632"/>
	<path fill="#FFFFFF" stroke="#000000" stroke-width="0.33" d="M485.715,621.808c0.229,0.263,0.627,0.291,0.889,0.063
		c0.266-0.229,0.293-0.628,0.064-0.891c-0.23-0.264-0.629-0.291-0.891-0.063C485.514,621.146,485.486,621.544,485.715,621.808z"/>
	<circle fill="#FFFFFF" stroke="#000000" stroke-width="0.33" cx="487.02" cy="622.346" r="0.631"/>
	<circle fill="#FFFFFF" stroke="#000000" stroke-width="0.33" cx="487.848" cy="623.3" r="0.631"/>
	<path fill="#FFFFFF" stroke="#000000" stroke-width="0.33" d="M488.199,624.667c0.229,0.263,0.627,0.291,0.889,0.063
		c0.264-0.229,0.293-0.628,0.064-0.892c-0.23-0.263-0.629-0.291-0.891-0.062C487.998,624.004,487.969,624.403,488.199,624.667z"/>
	<circle fill="#FFFFFF" stroke="#000000" stroke-width="0.33" cx="489.503" cy="625.206" r="0.632"/>
	<circle fill="#FFFFFF" stroke="#000000" stroke-width="0.33" cx="490.331" cy="626.159" r="0.631"/>
	<circle fill="#FFFFFF" stroke="#000000" stroke-width="0.33" cx="491.159" cy="627.112" r="0.632"/>
	<path fill="#FFFFFF" stroke="#000000" stroke-width="0.33" d="M491.422,627.416c1.125-0.492,9.893,7.298,4.271,9.758
		C489.58,639.851,490.297,627.909,491.422,627.416z M494.162,633.794c3.377-1.479-1.891-6.159-2.566-5.862
		C490.92,628.228,490.488,635.402,494.162,633.794z"/>
	<path fill="#FFFFFF" stroke="#000000" stroke-width="0.33" d="M491.256,627.516c0.752-0.55,2.107,0.025,3.029,1.283
		s1.061,2.724,0.311,3.273s-2.105-0.024-3.027-1.282C490.646,629.531,490.506,628.065,491.256,627.516z M491.822,628.325
		c0.123-0.054,0.178-0.196,0.125-0.318c-0.055-0.123-0.197-0.179-0.32-0.125c-0.121,0.053-0.178,0.196-0.123,0.318
		C491.557,628.322,491.699,628.379,491.822,628.325z"/>
</g>
<g>
	<rect x="485.289" y="599.563" fill="none" width="13.037" height="17.964"/>
	<circle fill="#FFFFFF" stroke="#000000" stroke-width="0.33" cx="486.025" cy="600.298" r="0.631"/>
	<circle fill="#FFFFFF" stroke="#000000" stroke-width="0.33" cx="486.854" cy="601.251" r="0.631"/>
	<circle fill="#FFFFFF" stroke="#000000" stroke-width="0.33" cx="487.682" cy="602.204" r="0.631"/>
	<circle fill="#FFFFFF" stroke="#000000" stroke-width="0.33" cx="488.51" cy="603.157" r="0.631"/>
	<circle fill="#FFFFFF" stroke="#000000" stroke-width="0.33" cx="489.338" cy="604.11" r="0.631"/>
	<circle fill="#FFFFFF" stroke="#000000" stroke-width="0.33" cx="490.166" cy="605.063" r="0.631"/>
	<circle fill="#FFFFFF" stroke="#000000" stroke-width="0.33" cx="490.994" cy="606.017" r="0.631"/>
	<circle fill="#FFFFFF" stroke="#000000" stroke-width="0.33" cx="491.822" cy="606.97" r="0.631"/>
	<path fill="#FFFFFF" stroke="#000000" stroke-width="0.33" d="M492.084,607.273c1.127-0.492,9.893,7.298,4.273,9.758
		C490.242,619.708,490.959,607.767,492.084,607.273z M494.824,613.652c3.377-1.479-1.891-6.16-2.566-5.863
		C491.582,608.085,491.152,615.26,494.824,613.652z"/>
	<path fill="#FFFFFF" stroke="#000000" stroke-width="0.33" d="M491.918,607.374c0.752-0.551,2.105,0.024,3.029,1.282
		c0.922,1.259,1.061,2.725,0.311,3.273c-0.75,0.55-2.105-0.024-3.027-1.282C491.309,609.389,491.168,607.923,491.918,607.374z
		 M492.484,608.183c0.123-0.054,0.178-0.196,0.125-0.318c-0.055-0.122-0.197-0.179-0.318-0.125
		c-0.123,0.054-0.178,0.196-0.125,0.318C492.219,608.181,492.361,608.236,492.484,608.183z"/>
</g>
<g>
	<rect x="485.918" y="579.417" fill="none" width="13.037" height="17.965"/>
	<circle fill="#FFFFFF" stroke="#000000" stroke-width="0.33" cx="486.653" cy="580.152" r="0.631"/>
	<path fill="#FFFFFF" stroke="#000000" stroke-width="0.33" d="M487.004,581.521c0.229,0.263,0.627,0.29,0.893,0.062
		c0.262-0.228,0.291-0.627,0.061-0.891c-0.227-0.263-0.627-0.291-0.891-0.063C486.805,580.857,486.775,581.256,487.004,581.521z"/>
	<circle fill="#FFFFFF" stroke="#000000" stroke-width="0.33" cx="488.309" cy="582.059" r="0.631"/>
	<circle fill="#FFFFFF" stroke="#000000" stroke-width="0.33" cx="489.137" cy="583.012" r="0.631"/>
	<circle fill="#FFFFFF" stroke="#000000" stroke-width="0.33" cx="489.965" cy="583.965" r="0.631"/>
	<circle fill="#FFFFFF" stroke="#000000" stroke-width="0.33" cx="490.793" cy="584.918" r="0.631"/>
	<circle fill="#FFFFFF" stroke="#000000" stroke-width="0.33" cx="491.621" cy="585.872" r="0.631"/>
	<circle fill="#FFFFFF" stroke="#000000" stroke-width="0.33" cx="492.449" cy="586.825" r="0.631"/>
	<path fill="#FFFFFF" stroke="#000000" stroke-width="0.33" d="M492.713,587.129c1.125-0.493,9.891,7.297,4.271,9.758
		C490.871,599.563,491.588,587.622,492.713,587.129z M495.453,593.507c3.377-1.479-1.891-6.159-2.566-5.862
		C492.211,587.94,491.779,595.115,495.453,593.507z"/>
	<path fill="#FFFFFF" stroke="#000000" stroke-width="0.33" d="M492.547,587.229c0.75-0.55,2.105,0.024,3.027,1.283
		c0.924,1.258,1.063,2.724,0.313,3.273c-0.75,0.549-2.105-0.024-3.029-1.283C491.936,589.244,491.797,587.778,492.547,587.229z
		 M493.113,588.037c0.121-0.054,0.178-0.196,0.125-0.318c-0.055-0.122-0.197-0.178-0.318-0.124c-0.123,0.053-0.18,0.195-0.127,0.318
		C492.848,588.035,492.99,588.092,493.113,588.037z"/>
</g>
<g>
	<rect x="486.498" y="559.282" fill="none" width="13.037" height="17.966"/>
	<circle fill="#FFFFFF" stroke="#000000" stroke-width="0.33" cx="487.234" cy="560.019" r="0.631"/>
	<circle fill="#FFFFFF" stroke="#000000" stroke-width="0.33" cx="488.063" cy="560.972" r="0.631"/>
	<circle fill="#FFFFFF" stroke="#000000" stroke-width="0.33" cx="488.891" cy="561.925" r="0.631"/>
	<circle fill="#FFFFFF" stroke="#000000" stroke-width="0.33" cx="489.719" cy="562.878" r="0.631"/>
	<circle fill="#FFFFFF" stroke="#000000" stroke-width="0.33" cx="490.547" cy="563.831" r="0.631"/>
	<circle fill="#FFFFFF" stroke="#000000" stroke-width="0.33" cx="491.375" cy="564.784" r="0.631"/>
	<circle fill="#FFFFFF" stroke="#000000" stroke-width="0.33" cx="492.203" cy="565.737" r="0.631"/>
	<circle fill="#FFFFFF" stroke="#000000" stroke-width="0.33" cx="493.031" cy="566.69" r="0.631"/>
	<path fill="#FFFFFF" stroke="#000000" stroke-width="0.33" d="M493.293,566.994c1.127-0.492,9.893,7.298,4.273,9.758
		C491.451,579.429,492.168,567.487,493.293,566.994z M496.035,573.372c3.375-1.478-1.891-6.159-2.566-5.862
		C492.791,567.806,492.361,574.98,496.035,573.372z"/>
	<path fill="#FFFFFF" stroke="#000000" stroke-width="0.33" d="M493.127,567.094c0.752-0.55,2.107,0.025,3.029,1.283
		c0.922,1.259,1.061,2.725,0.313,3.273c-0.752,0.55-2.107-0.024-3.029-1.282C492.518,569.109,492.379,567.645,493.127,567.094z
		 M493.693,567.903c0.123-0.054,0.178-0.196,0.125-0.318c-0.053-0.123-0.195-0.179-0.318-0.125s-0.178,0.196-0.125,0.318
		C493.43,567.9,493.572,567.956,493.693,567.903z"/>
</g>
<g>
	<rect x="487.037" y="539.132" fill="none" width="13.037" height="17.966"/>
	<circle fill="#FFFFFF" stroke="#000000" stroke-width="0.33" cx="487.772" cy="539.868" r="0.632"/>
	<path fill="#FFFFFF" stroke="#000000" stroke-width="0.33" d="M488.125,541.235c0.229,0.263,0.627,0.291,0.889,0.063
		c0.264-0.229,0.293-0.627,0.063-0.891c-0.229-0.264-0.627-0.291-0.889-0.063C487.922,540.573,487.896,540.972,488.125,541.235z"/>
	<circle fill="#FFFFFF" stroke="#000000" stroke-width="0.33" cx="489.429" cy="541.774" r="0.632"/>
	<circle fill="#FFFFFF" stroke="#000000" stroke-width="0.33" cx="490.257" cy="542.728" r="0.631"/>
	<circle fill="#FFFFFF" stroke="#000000" stroke-width="0.33" cx="491.085" cy="543.68" r="0.632"/>
	<circle fill="#FFFFFF" stroke="#000000" stroke-width="0.33" cx="491.913" cy="544.634" r="0.632"/>
	<circle fill="#FFFFFF" stroke="#000000" stroke-width="0.33" cx="492.741" cy="545.587" r="0.631"/>
	<circle fill="#FFFFFF" stroke="#000000" stroke-width="0.33" cx="493.569" cy="546.541" r="0.632"/>
	<path fill="#FFFFFF" stroke="#000000" stroke-width="0.33" d="M493.832,546.844c1.125-0.492,9.893,7.298,4.271,9.759
		C491.99,559.278,492.707,547.337,493.832,546.844z M496.572,553.222c3.377-1.479-1.891-6.158-2.566-5.862
		S492.898,554.83,496.572,553.222z"/>
	<path fill="#FFFFFF" stroke="#000000" stroke-width="0.33" d="M493.666,546.943c0.752-0.549,2.107,0.025,3.029,1.283
		s1.061,2.724,0.311,3.274c-0.75,0.549-2.105-0.025-3.027-1.283C493.057,548.959,492.916,547.493,493.666,546.943z M494.232,547.753
		c0.121-0.054,0.178-0.196,0.125-0.318c-0.055-0.122-0.197-0.179-0.32-0.125c-0.121,0.054-0.178,0.196-0.123,0.318
		C493.967,547.751,494.109,547.807,494.232,547.753z"/>
</g>
<g>
	<rect x="487.535" y="518.974" fill="none" width="13.039" height="17.965"/>
	<circle fill="#FFFFFF" stroke="#000000" stroke-width="0.33" cx="488.271" cy="519.709" r="0.632"/>
	<circle fill="#FFFFFF" stroke="#000000" stroke-width="0.33" cx="489.1" cy="520.663" r="0.631"/>
	<circle fill="#FFFFFF" stroke="#000000" stroke-width="0.33" cx="489.928" cy="521.616" r="0.631"/>
	<circle fill="#FFFFFF" stroke="#000000" stroke-width="0.33" cx="490.756" cy="522.569" r="0.631"/>
	<circle fill="#FFFFFF" stroke="#000000" stroke-width="0.33" cx="491.584" cy="523.522" r="0.631"/>
	<circle fill="#FFFFFF" stroke="#000000" stroke-width="0.33" cx="492.412" cy="524.475" r="0.632"/>
	<circle fill="#FFFFFF" stroke="#000000" stroke-width="0.33" cx="493.24" cy="525.429" r="0.631"/>
	<circle fill="#FFFFFF" stroke="#000000" stroke-width="0.33" cx="494.068" cy="526.382" r="0.631"/>
	<path fill="#FFFFFF" stroke="#000000" stroke-width="0.33" d="M494.332,526.686c1.125-0.492,9.891,7.297,4.271,9.758
		C492.488,539.12,493.205,527.179,494.332,526.686z M497.072,533.063c3.375-1.479-1.891-6.159-2.566-5.862
		C493.828,527.497,493.398,534.672,497.072,533.063z"/>
	<path fill="#FFFFFF" stroke="#000000" stroke-width="0.33" d="M494.166,526.785c0.75-0.55,2.105,0.024,3.027,1.283
		c0.922,1.258,1.063,2.724,0.313,3.273c-0.752,0.549-2.105-0.024-3.029-1.283C493.555,528.801,493.416,527.335,494.166,526.785z
		 M494.73,527.595c0.123-0.055,0.178-0.196,0.125-0.318s-0.195-0.179-0.318-0.125c-0.121,0.054-0.178,0.196-0.125,0.318
		C494.467,527.593,494.609,527.648,494.73,527.595z"/>
</g>
<g>
	<rect x="487.963" y="498.836" fill="none" width="13.037" height="17.964"/>
	<circle fill="#FFFFFF" stroke="#000000" stroke-width="0.33" cx="488.699" cy="499.571" r="0.631"/>
	<circle fill="#FFFFFF" stroke="#000000" stroke-width="0.33" cx="489.527" cy="500.524" r="0.631"/>
	<circle fill="#FFFFFF" stroke="#000000" stroke-width="0.33" cx="490.355" cy="501.478" r="0.631"/>
	<circle fill="#FFFFFF" stroke="#000000" stroke-width="0.33" cx="491.184" cy="502.431" r="0.631"/>
	<circle fill="#FFFFFF" stroke="#000000" stroke-width="0.33" cx="492.012" cy="503.384" r="0.631"/>
	<circle fill="#FFFFFF" stroke="#000000" stroke-width="0.33" cx="492.84" cy="504.337" r="0.631"/>
	<circle fill="#FFFFFF" stroke="#000000" stroke-width="0.33" cx="493.668" cy="505.291" r="0.631"/>
	<circle fill="#FFFFFF" stroke="#000000" stroke-width="0.33" cx="494.496" cy="506.243" r="0.631"/>
	<path fill="#FFFFFF" stroke="#000000" stroke-width="0.33" d="M494.76,506.547c1.125-0.492,9.891,7.298,4.271,9.758
		C492.918,518.981,493.635,507.04,494.76,506.547z M497.498,512.926c3.377-1.479-1.889-6.159-2.564-5.863
		C494.256,507.358,493.826,514.533,497.498,512.926z"/>
	<path fill="#FFFFFF" stroke="#000000" stroke-width="0.33" d="M494.594,506.647c0.75-0.551,2.105,0.024,3.027,1.282
		c0.922,1.259,1.063,2.725,0.313,3.273c-0.75,0.55-2.105-0.024-3.029-1.282C493.982,508.662,493.844,507.197,494.594,506.647z
		 M495.158,507.456c0.123-0.054,0.18-0.196,0.125-0.318c-0.053-0.122-0.195-0.178-0.318-0.125c-0.121,0.054-0.178,0.196-0.123,0.318
		C494.895,507.454,495.037,507.51,495.158,507.456z"/>
</g>
<g>
	<rect x="488.383" y="478.68" fill="none" width="13.037" height="17.965"/>
	<circle fill="#FFFFFF" stroke="#000000" stroke-width="0.33" cx="489.119" cy="479.416" r="0.631"/>
	<circle fill="#FFFFFF" stroke="#000000" stroke-width="0.33" cx="489.947" cy="480.369" r="0.631"/>
	<circle fill="#FFFFFF" stroke="#000000" stroke-width="0.33" cx="490.775" cy="481.322" r="0.631"/>
	<circle fill="#FFFFFF" stroke="#000000" stroke-width="0.33" cx="491.604" cy="482.275" r="0.631"/>
	<path fill="#FFFFFF" stroke="#000000" stroke-width="0.33" d="M491.955,483.643c0.229,0.264,0.627,0.291,0.889,0.063
		c0.264-0.229,0.293-0.628,0.064-0.891c-0.23-0.264-0.627-0.291-0.891-0.063S491.727,483.38,491.955,483.643z"/>
	<circle fill="#FFFFFF" stroke="#000000" stroke-width="0.33" cx="493.259" cy="484.182" r="0.632"/>
	<circle fill="#FFFFFF" stroke="#000000" stroke-width="0.33" cx="494.087" cy="485.135" r="0.631"/>
	<circle fill="#FFFFFF" stroke="#000000" stroke-width="0.33" cx="494.915" cy="486.088" r="0.632"/>
	<path fill="#FFFFFF" stroke="#000000" stroke-width="0.33" d="M495.178,486.393c1.127-0.493,9.893,7.297,4.271,9.757
		C493.336,498.826,494.053,486.886,495.178,486.393z M497.918,492.77c3.377-1.478-1.891-6.158-2.566-5.862
		S494.244,494.378,497.918,492.77z"/>
	<path fill="#FFFFFF" stroke="#000000" stroke-width="0.33" d="M495.012,486.491c0.752-0.55,2.107,0.024,3.029,1.283
		s1.061,2.725,0.311,3.273c-0.75,0.55-2.105-0.024-3.027-1.282C494.402,488.507,494.262,487.041,495.012,486.491z M495.578,487.301
		c0.123-0.054,0.178-0.196,0.125-0.318c-0.055-0.122-0.197-0.179-0.318-0.124c-0.123,0.053-0.18,0.195-0.125,0.318
		C495.313,487.299,495.455,487.354,495.578,487.301z"/>
</g>
<g>
	<rect x="488.668" y="458.521" fill="none" width="13.037" height="17.965"/>
	<circle fill="#FFFFFF" stroke="#000000" stroke-width="0.33" cx="489.403" cy="459.257" r="0.632"/>
	<path fill="#FFFFFF" stroke="#000000" stroke-width="0.33" d="M489.756,460.625c0.229,0.263,0.627,0.291,0.889,0.063
		c0.264-0.229,0.291-0.627,0.064-0.891c-0.23-0.264-0.629-0.292-0.891-0.063C489.555,459.963,489.525,460.361,489.756,460.625z"/>
	<path fill="#FFFFFF" stroke="#000000" stroke-width="0.33" d="M490.584,461.578c0.229,0.263,0.627,0.291,0.889,0.063
		c0.264-0.229,0.293-0.627,0.064-0.891c-0.23-0.264-0.629-0.291-0.893-0.063C490.383,460.916,490.354,461.314,490.584,461.578z"/>
	<circle fill="#FFFFFF" stroke="#000000" stroke-width="0.33" cx="491.888" cy="462.117" r="0.632"/>
	<circle fill="#FFFFFF" stroke="#000000" stroke-width="0.33" cx="492.716" cy="463.07" r="0.631"/>
	<circle fill="#FFFFFF" stroke="#000000" stroke-width="0.33" cx="493.544" cy="464.023" r="0.632"/>
	<circle fill="#FFFFFF" stroke="#000000" stroke-width="0.33" cx="494.371" cy="464.977" r="0.631"/>
	<circle fill="#FFFFFF" stroke="#000000" stroke-width="0.33" cx="495.2" cy="465.93" r="0.632"/>
	<path fill="#FFFFFF" stroke="#000000" stroke-width="0.33" d="M495.463,466.233c1.125-0.493,9.893,7.298,4.271,9.758
		C493.621,478.668,494.338,466.727,495.463,466.233z M498.203,472.611c3.377-1.479-1.891-6.159-2.566-5.862
		C494.961,467.045,494.529,474.22,498.203,472.611z"/>
	<path fill="#FFFFFF" stroke="#000000" stroke-width="0.33" d="M495.297,466.333c0.752-0.55,2.107,0.024,3.029,1.283
		c0.922,1.258,1.061,2.724,0.311,3.273s-2.105-0.024-3.027-1.283C494.688,468.349,494.547,466.883,495.297,466.333z
		 M495.863,467.142c0.121-0.053,0.178-0.195,0.125-0.318c-0.055-0.122-0.197-0.178-0.32-0.124c-0.121,0.054-0.178,0.196-0.123,0.319
		C495.598,467.141,495.74,467.196,495.863,467.142z"/>
</g>
<g>
	<rect x="488.951" y="438.382" fill="none" width="13.039" height="17.964"/>
	<circle fill="#FFFFFF" stroke="#000000" stroke-width="0.33" cx="489.688" cy="439.117" r="0.631"/>
	<circle fill="#FFFFFF" stroke="#000000" stroke-width="0.33" cx="490.516" cy="440.07" r="0.631"/>
	<circle fill="#FFFFFF" stroke="#000000" stroke-width="0.33" cx="491.344" cy="441.023" r="0.631"/>
	<circle fill="#FFFFFF" stroke="#000000" stroke-width="0.33" cx="492.172" cy="441.977" r="0.631"/>
	<circle fill="#FFFFFF" stroke="#000000" stroke-width="0.33" cx="493" cy="442.93" r="0.631"/>
	<circle fill="#FFFFFF" stroke="#000000" stroke-width="0.33" cx="493.828" cy="443.883" r="0.631"/>
	<circle fill="#FFFFFF" stroke="#000000" stroke-width="0.33" cx="494.656" cy="444.836" r="0.631"/>
	<circle fill="#FFFFFF" stroke="#000000" stroke-width="0.33" cx="495.484" cy="445.789" r="0.631"/>
	<path fill="#FFFFFF" stroke="#000000" stroke-width="0.33" d="M495.748,446.093c1.125-0.492,9.891,7.298,4.271,9.758
		C493.906,458.527,494.623,446.586,495.748,446.093z M498.488,452.471c3.377-1.478-1.891-6.159-2.566-5.862
		C495.244,446.904,494.814,454.079,498.488,452.471z"/>
	<path fill="#FFFFFF" stroke="#000000" stroke-width="0.33" d="M495.582,446.193c0.75-0.551,2.105,0.024,3.027,1.282
		c0.924,1.259,1.063,2.725,0.313,3.273c-0.75,0.55-2.105-0.024-3.027-1.282C494.973,448.208,494.832,446.742,495.582,446.193z
		 M496.148,447.002c0.121-0.054,0.178-0.196,0.123-0.318c-0.053-0.123-0.195-0.179-0.318-0.125
		c-0.121,0.054-0.178,0.196-0.123,0.318C495.883,447,496.025,447.056,496.148,447.002z"/>
</g>
<g>
	<rect x="489.051" y="418.188" fill="none" width="13.037" height="17.965"/>
	<circle fill="#FFFFFF" stroke="#000000" stroke-width="0.33" cx="489.787" cy="418.925" r="0.631"/>
	<circle fill="#FFFFFF" stroke="#000000" stroke-width="0.33" cx="490.615" cy="419.878" r="0.631"/>
	<circle fill="#FFFFFF" stroke="#000000" stroke-width="0.33" cx="491.443" cy="420.831" r="0.631"/>
	<circle fill="#FFFFFF" stroke="#000000" stroke-width="0.33" cx="492.271" cy="421.784" r="0.631"/>
	<circle fill="#FFFFFF" stroke="#000000" stroke-width="0.33" cx="493.1" cy="422.737" r="0.631"/>
	<circle fill="#FFFFFF" stroke="#000000" stroke-width="0.33" cx="493.928" cy="423.69" r="0.631"/>
	<circle fill="#FFFFFF" stroke="#000000" stroke-width="0.33" cx="494.756" cy="424.644" r="0.631"/>
	<circle fill="#FFFFFF" stroke="#000000" stroke-width="0.33" cx="495.584" cy="425.597" r="0.631"/>
	<path fill="#FFFFFF" stroke="#000000" stroke-width="0.33" d="M495.846,425.9c1.127-0.493,9.893,7.298,4.273,9.758
		C494.004,438.335,494.721,426.394,495.846,425.9z M498.588,432.278c3.375-1.478-1.891-6.159-2.566-5.862
		C495.344,426.712,494.914,433.887,498.588,432.278z"/>
	<path fill="#FFFFFF" stroke="#000000" stroke-width="0.33" d="M495.68,426c0.752-0.55,2.107,0.024,3.029,1.283
		c0.922,1.258,1.061,2.724,0.313,3.273c-0.752,0.55-2.107-0.024-3.029-1.283C495.07,428.016,494.932,426.55,495.68,426z
		 M496.246,426.809c0.123-0.053,0.178-0.195,0.125-0.318c-0.053-0.122-0.195-0.178-0.318-0.123
		c-0.123,0.053-0.178,0.195-0.125,0.318C495.982,426.808,496.125,426.863,496.246,426.809z"/>
</g>
<g>
	<rect x="489.129" y="398.046" fill="none" width="13.037" height="17.965"/>
	<circle fill="#FFFFFF" stroke="#000000" stroke-width="0.33" cx="489.864" cy="398.782" r="0.632"/>
	<path fill="#FFFFFF" stroke="#000000" stroke-width="0.33" d="M490.217,400.149c0.229,0.264,0.627,0.291,0.889,0.063
		c0.266-0.229,0.291-0.627,0.064-0.891c-0.23-0.264-0.629-0.291-0.891-0.063C490.016,399.487,489.986,399.886,490.217,400.149z"/>
	<path fill="#FFFFFF" stroke="#000000" stroke-width="0.33" d="M491.045,401.103c0.229,0.263,0.627,0.291,0.889,0.063
		c0.264-0.229,0.293-0.628,0.064-0.891c-0.23-0.263-0.627-0.291-0.893-0.063C490.844,400.44,490.814,400.84,491.045,401.103z"/>
	<circle fill="#FFFFFF" stroke="#000000" stroke-width="0.33" cx="492.349" cy="401.642" r="0.632"/>
	<circle fill="#FFFFFF" stroke="#000000" stroke-width="0.33" cx="493.177" cy="402.595" r="0.631"/>
	<circle fill="#FFFFFF" stroke="#000000" stroke-width="0.33" cx="494.005" cy="403.548" r="0.632"/>
	<circle fill="#FFFFFF" stroke="#000000" stroke-width="0.33" cx="494.833" cy="404.501" r="0.631"/>
	<circle fill="#FFFFFF" stroke="#000000" stroke-width="0.33" cx="495.661" cy="405.454" r="0.632"/>
	<path fill="#FFFFFF" stroke="#000000" stroke-width="0.33" d="M495.924,405.758c1.125-0.492,9.893,7.298,4.271,9.758
		C494.082,418.192,494.799,406.251,495.924,405.758z M498.664,412.137c3.377-1.479-1.891-6.159-2.566-5.863
		S494.99,413.744,498.664,412.137z"/>
	<path fill="#FFFFFF" stroke="#000000" stroke-width="0.33" d="M495.758,405.857c0.752-0.55,2.107,0.025,3.029,1.283
		c0.922,1.259,1.061,2.725,0.311,3.273c-0.75,0.55-2.105-0.024-3.027-1.282C495.148,407.873,495.008,406.408,495.758,405.857z
		 M496.324,406.667c0.123-0.054,0.178-0.196,0.125-0.318c-0.055-0.122-0.197-0.179-0.32-0.125c-0.121,0.054-0.178,0.196-0.123,0.319
		C496.059,406.665,496.201,406.721,496.324,406.667z"/>
</g>
<g>
	<rect x="488.924" y="377.825" fill="none" width="13.037" height="17.965"/>
	<circle fill="#FFFFFF" stroke="#000000" stroke-width="0.33" cx="489.66" cy="378.562" r="0.631"/>
	<circle fill="#FFFFFF" stroke="#000000" stroke-width="0.33" cx="490.488" cy="379.515" r="0.631"/>
	<path fill="#FFFFFF" stroke="#000000" stroke-width="0.33" d="M490.84,380.882c0.229,0.263,0.627,0.291,0.889,0.063
		c0.264-0.229,0.293-0.628,0.064-0.891c-0.23-0.264-0.627-0.291-0.891-0.063S490.611,380.618,490.84,380.882z"/>
	<circle fill="#FFFFFF" stroke="#000000" stroke-width="0.33" cx="492.145" cy="381.421" r="0.631"/>
	<circle fill="#FFFFFF" stroke="#000000" stroke-width="0.33" cx="492.972" cy="382.374" r="0.631"/>
	<circle fill="#FFFFFF" stroke="#000000" stroke-width="0.33" cx="493.8" cy="383.327" r="0.632"/>
	<circle fill="#FFFFFF" stroke="#000000" stroke-width="0.33" cx="494.629" cy="384.28" r="0.631"/>
	<circle fill="#FFFFFF" stroke="#000000" stroke-width="0.33" cx="495.457" cy="385.233" r="0.631"/>
	<path fill="#FFFFFF" stroke="#000000" stroke-width="0.33" d="M495.719,385.537c1.125-0.492,9.893,7.298,4.271,9.758
		C493.877,397.972,494.594,386.03,495.719,385.537z M498.459,391.915c3.377-1.478-1.891-6.159-2.566-5.862
		C495.217,386.349,494.785,393.523,498.459,391.915z"/>
	<path fill="#FFFFFF" stroke="#000000" stroke-width="0.33" d="M495.553,385.637c0.752-0.55,2.107,0.025,3.029,1.283
		s1.061,2.724,0.311,3.273s-2.105-0.024-3.027-1.282C494.943,387.652,494.805,386.187,495.553,385.637z M496.119,386.446
		c0.121-0.054,0.178-0.196,0.125-0.318c-0.055-0.123-0.195-0.179-0.318-0.125s-0.18,0.196-0.125,0.318
		S495.998,386.5,496.119,386.446z"/>
</g>
<g>
	<rect x="488.629" y="357.541" fill="none" width="13.037" height="17.965"/>
	<circle fill="#FFFFFF" stroke="#000000" stroke-width="0.33" cx="489.365" cy="358.277" r="0.631"/>
	<circle fill="#FFFFFF" stroke="#000000" stroke-width="0.33" cx="490.193" cy="359.23" r="0.631"/>
	<circle fill="#FFFFFF" stroke="#000000" stroke-width="0.33" cx="491.021" cy="360.184" r="0.631"/>
	<circle fill="#FFFFFF" stroke="#000000" stroke-width="0.33" cx="491.85" cy="361.137" r="0.631"/>
	<circle fill="#FFFFFF" stroke="#000000" stroke-width="0.33" cx="492.678" cy="362.09" r="0.631"/>
	<circle fill="#FFFFFF" stroke="#000000" stroke-width="0.33" cx="493.506" cy="363.043" r="0.631"/>
	<circle fill="#FFFFFF" stroke="#000000" stroke-width="0.33" cx="494.334" cy="363.996" r="0.631"/>
	<circle fill="#FFFFFF" stroke="#000000" stroke-width="0.33" cx="495.162" cy="364.949" r="0.631"/>
	<path fill="#FFFFFF" stroke="#000000" stroke-width="0.33" d="M495.424,365.253c1.125-0.492,9.893,7.298,4.273,9.758
		C493.582,377.688,494.299,365.746,495.424,365.253z M498.164,371.631c3.377-1.479-1.889-6.159-2.566-5.862
		C494.922,366.064,494.492,373.239,498.164,371.631z"/>
	<path fill="#FFFFFF" stroke="#000000" stroke-width="0.33" d="M495.258,365.353c0.752-0.55,2.107,0.024,3.029,1.283
		c0.922,1.258,1.063,2.724,0.311,3.273c-0.75,0.55-2.105-0.024-3.027-1.282C494.648,367.368,494.51,365.902,495.258,365.353z
		 M495.824,366.162c0.123-0.054,0.178-0.196,0.125-0.318c-0.055-0.123-0.195-0.179-0.318-0.125s-0.18,0.196-0.125,0.318
		C495.561,366.16,495.703,366.216,495.824,366.162z"/>
</g>
<g>
	<rect x="487.785" y="337.416" fill="none" width="13.039" height="17.965"/>
	<circle fill="#FFFFFF" stroke="#000000" stroke-width="0.33" cx="488.521" cy="338.152" r="0.631"/>
	<circle fill="#FFFFFF" stroke="#000000" stroke-width="0.33" cx="489.35" cy="339.105" r="0.631"/>
	<circle fill="#FFFFFF" stroke="#000000" stroke-width="0.33" cx="490.178" cy="340.059" r="0.631"/>
	<circle fill="#FFFFFF" stroke="#000000" stroke-width="0.33" cx="491.006" cy="341.012" r="0.631"/>
	<circle fill="#FFFFFF" stroke="#000000" stroke-width="0.33" cx="491.834" cy="341.965" r="0.631"/>
	<circle fill="#FFFFFF" stroke="#000000" stroke-width="0.33" cx="492.662" cy="342.918" r="0.631"/>
	<circle fill="#FFFFFF" stroke="#000000" stroke-width="0.33" cx="493.49" cy="343.871" r="0.631"/>
	<circle fill="#FFFFFF" stroke="#000000" stroke-width="0.33" cx="494.318" cy="344.824" r="0.631"/>
	<path fill="#FFFFFF" stroke="#000000" stroke-width="0.33" d="M494.582,345.128c1.125-0.492,9.891,7.298,4.271,9.758
		C492.74,357.563,493.457,345.621,494.582,345.128z M497.322,351.506c3.377-1.479-1.891-6.159-2.566-5.862
		C494.078,345.939,493.648,353.114,497.322,351.506z"/>
	<path fill="#FFFFFF" stroke="#000000" stroke-width="0.33" d="M494.416,345.228c0.75-0.55,2.105,0.025,3.027,1.283
		c0.924,1.258,1.063,2.724,0.313,3.273s-2.105-0.024-3.027-1.282C493.807,347.243,493.666,345.777,494.416,345.228z
		 M494.982,346.037c0.121-0.054,0.178-0.196,0.123-0.318c-0.053-0.123-0.195-0.179-0.318-0.125
		c-0.121,0.054-0.178,0.196-0.123,0.318C494.717,346.035,494.859,346.091,494.982,346.037z"/>
</g>
<g>
	<rect x="486.395" y="317.123" fill="none" width="13.037" height="17.965"/>
	<circle fill="#FFFFFF" stroke="#000000" stroke-width="0.33" cx="487.131" cy="317.858" r="0.631"/>
	<circle fill="#FFFFFF" stroke="#000000" stroke-width="0.33" cx="487.959" cy="318.812" r="0.631"/>
	<circle fill="#FFFFFF" stroke="#000000" stroke-width="0.33" cx="488.787" cy="319.765" r="0.631"/>
	<circle fill="#FFFFFF" stroke="#000000" stroke-width="0.33" cx="489.615" cy="320.718" r="0.631"/>
	<circle fill="#FFFFFF" stroke="#000000" stroke-width="0.33" cx="490.443" cy="321.671" r="0.631"/>
	<circle fill="#FFFFFF" stroke="#000000" stroke-width="0.33" cx="491.271" cy="322.624" r="0.631"/>
	<circle fill="#FFFFFF" stroke="#000000" stroke-width="0.33" cx="492.1" cy="323.577" r="0.631"/>
	<circle fill="#FFFFFF" stroke="#000000" stroke-width="0.33" cx="492.928" cy="324.53" r="0.631"/>
	<path fill="#FFFFFF" stroke="#000000" stroke-width="0.33" d="M493.191,324.834c1.125-0.492,9.891,7.298,4.271,9.759
		C491.35,337.269,492.064,325.328,493.191,324.834z M495.932,331.213c3.375-1.479-1.891-6.159-2.566-5.863
		S492.258,332.82,495.932,331.213z"/>
	<path fill="#FFFFFF" stroke="#000000" stroke-width="0.33" d="M493.025,324.935c0.75-0.55,2.105,0.024,3.027,1.282
		c0.922,1.259,1.063,2.725,0.313,3.274c-0.752,0.549-2.107-0.025-3.029-1.283C492.414,326.949,492.275,325.484,493.025,324.935z
		 M493.59,325.743c0.123-0.054,0.18-0.196,0.127-0.318c-0.055-0.122-0.197-0.179-0.32-0.124c-0.121,0.053-0.178,0.195-0.125,0.318
		C493.326,325.741,493.469,325.797,493.59,325.743z"/>
</g>
<g>
	<rect x="484.033" y="296.725" fill="none" width="13.037" height="17.965"/>
	<circle fill="#FFFFFF" stroke="#000000" stroke-width="0.33" cx="484.769" cy="297.461" r="0.631"/>
	<circle fill="#FFFFFF" stroke="#000000" stroke-width="0.33" cx="485.598" cy="298.414" r="0.631"/>
	<path fill="#FFFFFF" stroke="#000000" stroke-width="0.33" d="M485.949,299.781c0.229,0.263,0.627,0.291,0.889,0.063
		c0.264-0.229,0.291-0.628,0.064-0.891c-0.23-0.264-0.629-0.291-0.891-0.063C485.748,299.119,485.719,299.518,485.949,299.781z"/>
	<path fill="#FFFFFF" stroke="#000000" stroke-width="0.33" d="M486.777,300.734c0.229,0.263,0.627,0.291,0.889,0.063
		c0.264-0.229,0.293-0.628,0.064-0.891c-0.23-0.264-0.629-0.292-0.893-0.063C486.576,300.072,486.547,300.471,486.777,300.734z"/>
	<path fill="#FFFFFF" stroke="#000000" stroke-width="0.33" d="M487.604,301.688c0.229,0.263,0.629,0.291,0.893,0.063
		c0.262-0.229,0.291-0.628,0.061-0.891c-0.227-0.264-0.627-0.291-0.891-0.063C487.404,301.025,487.375,301.424,487.604,301.688z"/>
	<circle fill="#FFFFFF" stroke="#000000" stroke-width="0.33" cx="488.908" cy="302.227" r="0.631"/>
	<circle fill="#FFFFFF" stroke="#000000" stroke-width="0.33" cx="489.738" cy="303.18" r="0.631"/>
	<circle fill="#FFFFFF" stroke="#000000" stroke-width="0.33" cx="490.564" cy="304.133" r="0.631"/>
	<path fill="#FFFFFF" stroke="#000000" stroke-width="0.33" d="M490.828,304.437c1.125-0.492,9.893,7.298,4.271,9.758
		C488.986,316.871,489.703,304.93,490.828,304.437z M493.568,310.814c3.377-1.478-1.891-6.159-2.566-5.862
		C490.326,305.248,489.895,312.423,493.568,310.814z"/>
	<path fill="#FFFFFF" stroke="#000000" stroke-width="0.33" d="M490.662,304.536c0.75-0.55,2.105,0.025,3.027,1.283
		c0.924,1.258,1.063,2.724,0.313,3.273s-2.105-0.024-3.027-1.282C490.053,306.552,489.912,305.086,490.662,304.536z
		 M491.229,305.346c0.121-0.054,0.178-0.196,0.125-0.318c-0.055-0.123-0.197-0.179-0.318-0.125c-0.123,0.054-0.18,0.196-0.125,0.318
		C490.963,305.344,491.105,305.399,491.229,305.346z"/>
</g>
<g>
	<rect x="479.156" y="276.686" fill="none" width="13.037" height="17.964"/>
	<circle fill="#FFFFFF" stroke="#000000" stroke-width="0.33" cx="479.893" cy="277.422" r="0.631"/>
	<circle fill="#FFFFFF" stroke="#000000" stroke-width="0.33" cx="480.721" cy="278.375" r="0.631"/>
	<path fill="#FFFFFF" stroke="#000000" stroke-width="0.33" d="M481.072,279.742c0.229,0.263,0.627,0.291,0.889,0.063
		c0.264-0.229,0.293-0.627,0.064-0.891c-0.23-0.264-0.627-0.291-0.891-0.063S480.844,279.479,481.072,279.742z"/>
	<circle fill="#FFFFFF" stroke="#000000" stroke-width="0.33" cx="482.376" cy="280.281" r="0.632"/>
	<circle fill="#FFFFFF" stroke="#000000" stroke-width="0.33" cx="483.204" cy="281.234" r="0.631"/>
	<circle fill="#FFFFFF" stroke="#000000" stroke-width="0.33" cx="484.032" cy="282.188" r="0.632"/>
	<circle fill="#FFFFFF" stroke="#000000" stroke-width="0.33" cx="484.86" cy="283.141" r="0.631"/>
	<circle fill="#FFFFFF" stroke="#000000" stroke-width="0.33" cx="485.688" cy="284.094" r="0.632"/>
	<path fill="#FFFFFF" stroke="#000000" stroke-width="0.33" d="M485.951,284.397c1.125-0.492,9.893,7.298,4.271,9.758
		C484.109,296.832,484.826,284.891,485.951,284.397z M488.691,290.775c3.377-1.478-1.891-6.159-2.566-5.862
		C485.449,285.209,485.018,292.384,488.691,290.775z"/>
	<path fill="#FFFFFF" stroke="#000000" stroke-width="0.33" d="M485.785,284.498c0.752-0.55,2.107,0.025,3.029,1.283
		c0.922,1.259,1.061,2.725,0.311,3.273c-0.75,0.55-2.105-0.024-3.027-1.282C485.176,286.513,485.035,285.047,485.785,284.498z
		 M486.352,285.307c0.123-0.054,0.178-0.196,0.125-0.318c-0.055-0.123-0.197-0.179-0.318-0.125c-0.123,0.053-0.18,0.196-0.125,0.318
		C486.086,285.305,486.229,285.36,486.352,285.307z"/>
</g>
<g>
	<rect x="476.711" y="257.578" fill="none" width="13.037" height="17.965"/>
	<circle fill="#FFFFFF" stroke="#000000" stroke-width="0.33" cx="477.447" cy="258.314" r="0.631"/>
	<circle fill="#FFFFFF" stroke="#000000" stroke-width="0.33" cx="478.275" cy="259.267" r="0.631"/>
	<circle fill="#FFFFFF" stroke="#000000" stroke-width="0.33" cx="479.104" cy="260.22" r="0.631"/>
	<circle fill="#FFFFFF" stroke="#000000" stroke-width="0.33" cx="479.932" cy="261.173" r="0.631"/>
	<circle fill="#FFFFFF" stroke="#000000" stroke-width="0.33" cx="480.76" cy="262.126" r="0.631"/>
	<circle fill="#FFFFFF" stroke="#000000" stroke-width="0.33" cx="481.588" cy="263.08" r="0.631"/>
	<circle fill="#FFFFFF" stroke="#000000" stroke-width="0.33" cx="482.416" cy="264.033" r="0.631"/>
	<circle fill="#FFFFFF" stroke="#000000" stroke-width="0.33" cx="483.244" cy="264.986" r="0.631"/>
	<path fill="#FFFFFF" stroke="#000000" stroke-width="0.33" d="M483.508,265.29c1.125-0.492,9.891,7.298,4.271,9.758
		C481.666,277.724,482.381,265.783,483.508,265.29z M486.248,271.668c3.377-1.479-1.891-6.159-2.566-5.863
		C483.004,266.101,482.574,273.276,486.248,271.668z"/>
	<path fill="#FFFFFF" stroke="#000000" stroke-width="0.33" d="M483.342,265.39c0.75-0.55,2.105,0.024,3.027,1.283
		s1.063,2.724,0.313,3.274c-0.75,0.549-2.105-0.025-3.029-1.283C482.73,267.405,482.592,265.939,483.342,265.39z M483.906,266.199
		c0.123-0.054,0.18-0.196,0.125-0.318c-0.053-0.123-0.195-0.179-0.318-0.125c-0.123,0.053-0.178,0.196-0.125,0.318
		C483.643,266.196,483.785,266.252,483.906,266.199z"/>
</g>
<g>
	<rect x="475.133" y="237.54" fill="none" width="13.037" height="17.965"/>
	<circle fill="#FFFFFF" stroke="#000000" stroke-width="0.33" cx="475.869" cy="238.276" r="0.631"/>
	<circle fill="#FFFFFF" stroke="#000000" stroke-width="0.33" cx="476.697" cy="239.229" r="0.631"/>
	<circle fill="#FFFFFF" stroke="#000000" stroke-width="0.33" cx="477.525" cy="240.182" r="0.631"/>
	<circle fill="#FFFFFF" stroke="#000000" stroke-width="0.33" cx="478.354" cy="241.135" r="0.631"/>
	<circle fill="#FFFFFF" stroke="#000000" stroke-width="0.33" cx="479.182" cy="242.088" r="0.631"/>
	<circle fill="#FFFFFF" stroke="#000000" stroke-width="0.33" cx="480.01" cy="243.042" r="0.631"/>
	<circle fill="#FFFFFF" stroke="#000000" stroke-width="0.33" cx="480.838" cy="243.995" r="0.631"/>
	<circle fill="#FFFFFF" stroke="#000000" stroke-width="0.33" cx="481.666" cy="244.948" r="0.631"/>
	<path fill="#FFFFFF" stroke="#000000" stroke-width="0.33" d="M481.93,245.252c1.125-0.493,9.891,7.297,4.271,9.758
		C480.086,257.687,480.803,245.745,481.93,245.252z M484.668,251.63c3.377-1.478-1.889-6.159-2.564-5.863
		C481.426,246.063,480.996,253.238,484.668,251.63z"/>
	<path fill="#FFFFFF" stroke="#000000" stroke-width="0.33" d="M481.764,245.352c0.75-0.55,2.105,0.025,3.027,1.283
		c0.922,1.258,1.063,2.725,0.311,3.274c-0.75,0.55-2.104-0.025-3.027-1.283C481.152,247.367,481.014,245.901,481.764,245.352z
		 M482.328,246.161c0.123-0.054,0.178-0.196,0.125-0.318s-0.195-0.178-0.318-0.125c-0.121,0.053-0.178,0.196-0.125,0.318
		C482.064,246.159,482.207,246.214,482.328,246.161z"/>
</g>
<g>
	<rect x="473.496" y="217.455" fill="none" width="13.037" height="17.964"/>
	<circle fill="#FFFFFF" stroke="#000000" stroke-width="0.33" cx="474.232" cy="218.19" r="0.631"/>
	<circle fill="#FFFFFF" stroke="#000000" stroke-width="0.33" cx="475.061" cy="219.144" r="0.631"/>
	<circle fill="#FFFFFF" stroke="#000000" stroke-width="0.33" cx="475.889" cy="220.097" r="0.631"/>
	<circle fill="#FFFFFF" stroke="#000000" stroke-width="0.33" cx="476.717" cy="221.05" r="0.631"/>
	<circle fill="#FFFFFF" stroke="#000000" stroke-width="0.33" cx="477.545" cy="222.003" r="0.631"/>
	<circle fill="#FFFFFF" stroke="#000000" stroke-width="0.33" cx="478.373" cy="222.956" r="0.631"/>
	<circle fill="#FFFFFF" stroke="#000000" stroke-width="0.33" cx="479.201" cy="223.909" r="0.631"/>
	<circle fill="#FFFFFF" stroke="#000000" stroke-width="0.33" cx="480.029" cy="224.862" r="0.631"/>
	<path fill="#FFFFFF" stroke="#000000" stroke-width="0.33" d="M480.293,225.166c1.125-0.492,9.891,7.298,4.271,9.758
		C478.449,237.601,479.168,225.659,480.293,225.166z M483.031,231.544c3.377-1.479-1.889-6.159-2.566-5.863
		C479.789,225.978,479.359,233.152,483.031,231.544z"/>
	<path fill="#FFFFFF" stroke="#000000" stroke-width="0.33" d="M480.127,225.266c0.75-0.55,2.105,0.024,3.027,1.283
		s1.063,2.724,0.311,3.274c-0.748,0.549-2.105-0.025-3.027-1.283S479.377,225.816,480.127,225.266z M480.693,226.075
		c0.121-0.054,0.178-0.196,0.123-0.318c-0.053-0.123-0.195-0.179-0.318-0.125c-0.123,0.053-0.178,0.196-0.125,0.318
		C480.428,226.073,480.57,226.129,480.693,226.075z"/>
</g>
<path fill="none" stroke="#040000" stroke-width="0.5" stroke-dasharray="2,2" d="M424.559,661.092c0,0,11.85,0.634,28.979,0.634
	c17.131,0,29.891-0.634,29.891-0.634"/>
<path fill="none" stroke="#040000" stroke-width="0.5" stroke-dasharray="2,2" d="M424.559,659.154c0,0,11.85,0.635,28.979,0.635
	c17.131,0,29.891-0.635,29.891-0.635"/>
<polyline fill="none" stroke="#040000" stroke-width="0.5" stroke-dasharray="2,2" points="330.934,661.092 359.641,661.726 
	389.803,661.092 "/>
<polyline fill="none" stroke="#040000" stroke-width="0.5" stroke-dasharray="2,2" points="330.934,659.219 359.641,659.854 
	389.803,659.219 "/>
<path fill="#557495" stroke="#000000" d="M429.383,216.804c0,6.399-5.154,11.585-11.512,11.585H396.49
	c-6.357,0-11.512-5.186-11.512-11.585v-41.928h44.404V216.804z"/>
<ellipse fill="#FFFFFF" cx="407.182" cy="201.867" rx="4.865" ry="4.896"/>
<path fill="#FFFFFF" stroke="#040000" d="M407.182,182.127c-10.182,0-18.434,8.303-18.434,18.549c0,10.246,8.252,18.55,18.434,18.55
	c10.18,0,18.432-8.304,18.432-18.55C425.613,190.431,417.361,182.127,407.182,182.127z M406.365,214.479l-11.951-13.667
	l13.582-12.027l11.951,13.667L406.365,214.479z"/>
<rect x="407.182" y="200.597" fill="#557495" width="19.654" height="2.069"/>
<line fill="none" stroke="#040000" x1="408.371" y1="294.361" x2="407.18" y2="395.313"/>
<path fill="none" stroke="#040000" d="M336.764,284.699c0,0,56.406,21.74,143.613,0.805"/>
<circle fill="#A48B78" cx="381.804" cy="168.931" r="4.024"/>
<circle fill="#A48B78" cx="434.914" cy="168.931" r="4.024"/>
</svg>
